<svg width="32" height="32" viewBox="0 0 32 32" fill="none" xmlns="http://www.w3.org/2000/svg">
<rect x="0.788086" y="0.79834" width="30.4033" height="30.4033" rx="15.2016" fill="#2E73AE"/>
<path fill-rule="evenodd" clip-rule="evenodd" d="M9.58984 11.0716C9.58984 10.2587 10.2495 9.59912 11.0624 9.59912C11.8748 9.59912 12.5344 10.2587 12.5349 11.0716C12.5349 11.8846 11.8753 12.558 11.0624 12.558C10.2495 12.558 9.58984 11.8846 9.58984 11.0716ZM21.8488 21.862V21.8615H21.8518V17.3642C21.8518 15.1641 21.3782 13.4693 18.8061 13.4693C17.5697 13.4693 16.7399 14.1478 16.4011 14.7911H16.3654V13.6747H13.9267V21.8615H16.466V17.8077C16.466 16.7404 16.6684 15.7083 17.9902 15.7083C19.2925 15.7083 19.312 16.9263 19.312 17.8762V21.862H21.8488ZM9.79154 13.6747H12.334V21.8615H9.79154V13.6747Z" fill="white"/>
</svg>
