<svg width="31" height="32" viewBox="0 0 31 32" fill="none" xmlns="http://www.w3.org/2000/svg">
<rect x="0.192383" y="0.79834" width="30.4033" height="30.4033" rx="15.2016" fill="#77B3EB"/>
<path d="M21.2568 12.3848C20.8191 12.6138 20.1598 12.7196 19.9413 12.7501C19.9395 12.7395 19.9377 12.7294 19.9359 12.7193C20.6789 12.2597 20.9064 11.3944 20.9064 11.3944C20.4462 11.6575 20.0406 11.8034 19.7351 11.8843C19.5634 11.9304 19.4231 11.9553 19.3223 11.9692C18.8593 11.4943 18.2127 11.1997 17.4969 11.1997C16.0887 11.1997 14.9469 12.3412 14.9469 13.7499C14.9469 13.8006 14.9483 13.851 14.9516 13.9009C14.9584 14.0231 14.9739 14.143 14.9979 14.2597C14.3163 14.2496 11.856 14.0406 9.81718 11.6723C9.81718 11.6723 8.68186 13.6531 10.5906 15.0062C10.5906 15.0062 9.81718 14.9821 9.40664 14.6921C9.40664 14.6921 9.28589 16.6008 11.4842 17.2046C11.4842 17.2046 10.7113 17.3981 10.3245 17.2289C10.3245 17.2289 10.7112 18.8716 12.6438 18.9927C12.6438 18.9927 11.2577 20.2617 8.99414 20.0791C10.1074 20.7839 11.4273 21.1919 12.8425 21.1919C16.8215 21.1919 20.0472 17.9663 20.0472 13.9873C20.0472 13.9376 20.0468 13.888 20.0457 13.8383C20.0468 13.8089 20.0472 13.7796 20.0472 13.7499C20.0472 13.7292 20.0468 13.7085 20.0465 13.6878C20.7821 13.1976 21.2568 12.3848 21.2568 12.3848Z" fill="white"/>
</svg>
