<svg width="31" height="32" viewBox="0 0 31 32" fill="none" xmlns="http://www.w3.org/2000/svg">
<rect x="0.384766" y="0.79834" width="30.4033" height="30.4033" rx="15.2016" fill="#5BB452"/>
<path d="M9.18555 21.8617L10.0434 18.8148C9.49176 17.8776 9.2013 16.8113 9.2013 15.7159C9.2013 12.3431 11.9453 9.59912 15.3181 9.59912C18.6909 9.59912 21.4348 12.3431 21.4348 15.7159C21.4348 19.0887 18.6909 21.8327 15.3181 21.8327C14.2671 21.8327 13.2381 21.5637 12.3277 21.0528L9.18555 21.8617ZM12.4883 19.94L12.6756 20.0544C13.4693 20.5389 14.3831 20.7951 15.3181 20.7951C18.1187 20.7951 20.3972 18.5165 20.3972 15.7159C20.3972 12.9152 18.1187 10.6367 15.3181 10.6367C12.5174 10.6367 10.2389 12.9152 10.2389 15.7159C10.2389 16.6917 10.5163 17.6394 11.0409 18.4564L11.167 18.6527L10.673 20.4073L12.4883 19.94Z" fill="white"/>
<path d="M13.5994 12.8695L13.2025 12.8479C13.0778 12.8411 12.9555 12.8827 12.8613 12.9646C12.6689 13.1317 12.3612 13.4547 12.2667 13.8757C12.1258 14.5034 12.3436 15.272 12.9072 16.0406C13.4709 16.8092 14.5213 18.0389 16.3787 18.5641C16.9773 18.7334 17.4481 18.6193 17.8114 18.3869C18.0991 18.2029 18.2974 17.9075 18.3689 17.5735L18.4323 17.2775C18.4524 17.1834 18.4047 17.088 18.3173 17.0477L16.9759 16.4294C16.8888 16.3893 16.7855 16.4146 16.727 16.4905L16.2004 17.1732C16.1606 17.2248 16.0925 17.2452 16.031 17.2236C15.6704 17.0969 14.4624 16.591 13.7995 15.3142C13.7708 15.2588 13.7779 15.1916 13.8187 15.1443L14.322 14.5621C14.3734 14.5027 14.3864 14.4191 14.3555 14.3468L13.7773 12.9941C13.7465 12.9221 13.6775 12.8738 13.5994 12.8695Z" fill="white"/>
</svg>
