<svg id="Layer_1" data-name="Layer 1" xmlns="http://www.w3.org/2000/svg" viewBox="0 0 512 509.58"><defs><style>.cls-1{fill:#f5692c;}.cls-2{fill:#f45721;}.cls-3{fill:#f24e14;}.cls-4{fill:#f75a23;}</style></defs><path class="cls-1" d="M509.2,375.83,348.16,249a7.35,7.35,0,0,0-11.89,5.77v84.32H153c-44.2,0-89.52-12.26-123-41.32a7.35,7.35,0,0,0-12,6.91,184.24,184.24,0,0,0,16.08,48.35C57.58,399.43,97.6,423,153,423H334.85v80.49a7.35,7.35,0,0,0,11.76,5.88L509.06,387.48a7.35,7.35,0,0,0,.14-11.65Z" transform="translate(0 -1.21)"/><path class="cls-2" d="M509.2,375.83l-21-16.54C335.19,474.05,345.7,467,342.2,467a7.36,7.36,0,0,1-7.35-7.35v43.83a7.35,7.35,0,0,0,11.76,5.88L509.06,387.48a7.35,7.35,0,0,0,.14-11.65Z" transform="translate(0 -1.21)"/><path class="cls-1" d="M494,207.3C480.56,135.71,435.59,89.06,359,89.06H177.15V8.57a7.36,7.36,0,0,0-11.76-5.88L2.94,124.53a7.35,7.35,0,0,0-.14,11.65C176.26,272.77,164.73,264.55,168.38,264.55a7.35,7.35,0,0,0,7.34-7.35V172.89H359c44.3,0,89.59,12.31,123,41.32A7.36,7.36,0,0,0,494,207.3Z" transform="translate(0 -1.21)"/><path class="cls-3" d="M168.38,223.89c-3.64,0,7.08,7.57-146.64-113.46l-18.8,14.1a7.35,7.35,0,0,0-.14,11.65l161,126.8a7.35,7.35,0,0,0,11.89-5.78V216.54A7.35,7.35,0,0,1,168.38,223.89Z" transform="translate(0 -1.21)"/><path class="cls-3" d="M494,207.3a194.58,194.58,0,0,0-9-32.18c-4.9-1.21-41.83-42.9-126-42.9H220.68a42.16,42.16,0,0,1-8.74.67c-26.7,0-34.34,14.67-36.22,26.25v13.75H359c44.3,0,89.59,12.32,123,41.32A7.36,7.36,0,0,0,494,207.3Z" transform="translate(0 -1.21)"/><path class="cls-4" d="M294.86,379.11H153c-61.4,0-103.07-29.14-124.59-82.35A7.34,7.34,0,0,0,18,304.71c13.48,71.6,58.44,118.23,135,118.23H334.85V412.52C333.52,399.56,326.41,379.11,294.86,379.11Z" transform="translate(0 -1.21)"/></svg>