<svg height="20" fill="#8d94ad" viewBox="0 0 20 20" width="20" xmlns="http://www.w3.org/2000/svg"><g fill-rule="evenodd"><path d="M39.375 11.25h-7.5c-.346 0-.625.28-.625.625v7.5c0 .346.28.625.625.625h7.5c.346 0 .625-.28.625-.625v-7.5c0-.346-.28-.625-.625-.625zm0-11.25h-7.5c-.346 0-.625.28-.625.625v7.5c0 .346.28.625.625.625h7.5c.346 0 .625-.28.625-.625v-7.5C40 .28 39.72 0 39.375 0zm-11.25 0h-7.5C20.28 0 20 .28 20 .625v7.5c0 .346.28.625.625.625h7.5c.345 0 .625-.28.625-.625v-7.5c0-.345-.28-.625-.625-.625zm0 11.25h-7.5c-.345 0-.625.28-.625.625v7.5c0 .346.28.625.625.625h7.5c.345 0 .625-.28.625-.625v-7.5c0-.346-.28-.625-.625-.625z" transform="translate(-103 -680) translate(0 655) translate(83 25)"></path></g></svg>