<svg xmlns="http://www.w3.org/2000/svg" width="16" height="16" viewBox="0 0 16 16">
  <g id="Group_151" data-name="Group 151" transform="translate(-786.838 -235.838)">
    <circle id="Ellipse_5" data-name="Ellipse 5" cx="8" cy="8" r="8" transform="translate(786.838 235.838)" fill="#64d15b"/>
    <g id="Group_57" data-name="Group 57" transform="translate(790.657 243.976) rotate(-45)">
      <g id="Union_1" data-name="Union 1" fill="#fff">
        <path d="M 6.403500080108643 4.446199893951416 L 0.8541000485420227 4.446199893951416 C 0.5210000276565552 4.446199893951416 0.2500000298023224 4.17519998550415 0.2500000298023224 3.842099905014038 L 0.2500000298023224 0.8540999293327332 C 0.2500000298023224 0.5209999680519104 0.5210000276565552 0.2499999403953552 0.8541000485420227 0.2499999403953552 C 1.186710000038147 0.2499999403953552 1.457300066947937 0.5209999680519104 1.457300066947937 0.8540999293327332 L 1.457300066947937 2.98799991607666 L 1.457300066947937 3.23799991607666 L 1.707300066947937 3.23799991607666 L 6.403500080108643 3.23799991607666 C 6.736110210418701 3.23799991607666 7.006700038909912 3.509000062942505 7.006700038909912 3.842099905014038 C 7.006700038909912 4.17519998550415 6.736110210418701 4.446199893951416 6.403500080108643 4.446199893951416 Z" stroke="none"/>
        <path d="M 6.403500080108643 4.196199893951416 C 6.598259925842285 4.196199893951416 6.756700038909912 4.037350177764893 6.756700038909912 3.842099905014038 C 6.756700038909912 3.646849870681763 6.598259925842285 3.48799991607666 6.403500080108643 3.48799991607666 L 1.707300066947937 3.48799991607666 L 1.207300066947937 3.48799991607666 L 1.207300066947937 2.98799991607666 L 1.207300066947937 0.8540999293327332 C 1.207300066947937 0.6588499546051025 1.0488600730896 0.4999999403953552 0.8541000485420227 0.4999999403953552 C 0.6588500142097473 0.4999999403953552 0.5 0.6588499546051025 0.5 0.8540999293327332 L 0.5 3.842099905014038 C 0.5 4.037350177764893 0.6588500142097473 4.196199893951416 0.8541000485420227 4.196199893951416 L 6.403500080108643 4.196199893951416 M 6.403500080108643 4.696199893951416 L 0.8541000485420227 4.696199893951416 C 0.382500022649765 4.696199893951416 1.945495498034688e-08 4.313699722290039 1.945495498034688e-08 3.842099905014038 L 1.945495498034688e-08 0.8540999293327332 C 1.945495498034688e-08 0.3824999332427979 0.382500022649765 -5.302429073594794e-08 0.8541000485420227 -5.302429073594794e-08 C 1.325700044631958 -5.302429073594794e-08 1.707300066947937 0.3824999332427979 1.707300066947937 0.8540999293327332 L 1.707300066947937 2.98799991607666 L 6.403500080108643 2.98799991607666 C 6.875100135803223 2.98799991607666 7.256700038909912 3.370499849319458 7.256700038909912 3.842099905014038 C 7.256700038909912 4.313699722290039 6.875100135803223 4.696199893951416 6.403500080108643 4.696199893951416 Z" stroke="none" fill="#fff"/>
      </g>
    </g>
  </g>
</svg>
