<svg id="Capa_1" data-name="Capa 1" xmlns="http://www.w3.org/2000/svg" viewBox="0 0 368 480"><defs><style>.cls-1{fill:#7d62da;}.cls-2{fill:#679fc9;}.cls-3{fill:#fff;}.cls-4{fill:#ffeb99;}.cls-5{fill:#ff7a45;}</style></defs><path class="cls-1" d="M408,480H72a16,16,0,0,1-16-16V16A16,16,0,0,1,72,0H336l88,88V464A16,16,0,0,1,408,480Z" transform="translate(-56 0)"/><path class="cls-2" d="M336,0V72a16,16,0,0,0,16,16h72Z" transform="translate(-56 0)"/><path class="cls-3" d="M104,48h16V64H104Z" transform="translate(-56 0)"/><path class="cls-3" d="M136,48H296V64H136Z" transform="translate(-56 0)"/><path class="cls-3" d="M104,80H296V96H104Z" transform="translate(-56 0)"/><path class="cls-4" d="M112,128H368a8,8,0,0,1,8,8V296a8,8,0,0,1-8,8H112a8,8,0,0,1-8-8V136A8,8,0,0,1,112,128Z" transform="translate(-56 0)"/><path class="cls-5" d="M112,336h88a8,8,0,0,1,8,8v80a8,8,0,0,1-8,8H112a8,8,0,0,1-8-8V344A8,8,0,0,1,112,336Z" transform="translate(-56 0)"/><path class="cls-3" d="M224,336h16v16H224Z" transform="translate(-56 0)"/><path class="cls-3" d="M256,336H376v16H256Z" transform="translate(-56 0)"/><path class="cls-3" d="M224,368H376v16H224Z" transform="translate(-56 0)"/><path class="cls-3" d="M224,400H376v16H224Z" transform="translate(-56 0)"/></svg>