<svg id="clock-circular-outline" xmlns="http://www.w3.org/2000/svg" width="18.399" height="18.399" viewBox="0 0 18.399 18.399">
  <g id="Group_369" data-name="Group 369">
    <path id="Path_190" data-name="Path 190" d="M9.2,0a9.2,9.2,0,1,0,9.2,9.2A9.21,9.21,0,0,0,9.2,0Zm0,16.389A7.189,7.189,0,1,1,16.389,9.2,7.2,7.2,0,0,1,9.2,16.389Z" fill="#f5692c"/>
    <path id="Path_191" data-name="Path 191" d="M258.348,143.89v-3.856a.779.779,0,1,0-1.559,0v4.1c0,.012,0,.024,0,.036a.775.775,0,0,0,.225.589l2.9,2.9a.779.779,0,0,0,1.1-1.1Z" transform="translate(-248.352 -134.679)" fill="#f5692c"/>
  </g>
</svg>
