<svg xmlns="http://www.w3.org/2000/svg" width="32.564" height="32.564" viewBox="0 0 32.564 32.564">
  <g id="Group_48" data-name="Group 48" transform="translate(0 16.281) rotate(-45)">
    <g id="Union_1" data-name="Union 1" transform="translate(0 0)" fill="#fff">
      <path d="M 11.5128002166748 22.67650032043457 C 10.29491996765137 22.67650032043457 9.304100036621094 21.6856803894043 9.304100036621094 20.46780014038086 L 9.304100036621094 14.07150077819824 L 9.304100036621094 13.72150039672852 L 8.954099655151367 13.72150039672852 L 2.557800054550171 13.72150039672852 C 1.339920043945313 13.72150039672852 0.3491000831127167 12.7310905456543 0.3491000831127167 11.51370048522949 C 0.3491000831127167 10.29582023620605 1.339920043945313 9.305000305175781 2.557800054550171 9.305000305175781 L 8.954099655151367 9.305000305175781 L 9.304100036621094 9.305000305175781 L 9.304100036621094 8.955000877380371 L 9.304100036621094 2.558700561523438 C 9.304100036621094 1.341310501098633 10.29491996765137 0.3509004712104797 11.5128002166748 0.3509004712104797 C 12.73019027709961 0.3509004712104797 13.72060012817383 1.341310501098633 13.72060012817383 2.558700561523438 L 13.72060012817383 8.955000877380371 L 13.72060012817383 9.305000305175781 L 14.07060050964355 9.305000305175781 L 20.46689987182617 9.305000305175781 C 21.68478012084961 9.305000305175781 22.67560005187988 10.29582023620605 22.67560005187988 11.51370048522949 C 22.67560005187988 12.7310905456543 21.68478012084961 13.72150039672852 20.46689987182617 13.72150039672852 L 14.07060050964355 13.72150039672852 L 13.72060012817383 13.72150039672852 L 13.72060012817383 14.07150077819824 L 13.72060012817383 20.46780014038086 C 13.72060012817383 21.6856803894043 12.73019027709961 22.67650032043457 11.5128002166748 22.67650032043457 Z" stroke="none"/>
      <path d="M 11.5128002166748 22.32649993896484 C 12.53719043731689 22.32649993896484 13.3705997467041 21.49269104003906 13.3705997467041 20.46780014038086 L 13.3705997467041 14.07150077819824 L 13.3705997467041 13.37150001525879 L 14.07060050964355 13.37150001525879 L 20.46689987182617 13.37150001525879 C 21.49179077148438 13.37150001525879 22.32559967041016 12.53809070587158 22.32559967041016 11.51370048522949 C 22.32559967041016 10.48881053924561 21.49179077148438 9.655000686645508 20.46689987182617 9.655000686645508 L 14.07060050964355 9.655000686645508 L 13.3705997467041 9.655000686645508 L 13.3705997467041 8.955000877380371 L 13.3705997467041 2.558700561523438 C 13.3705997467041 1.534310460090637 12.53719043731689 0.7009004950523376 11.5128002166748 0.7009004950523376 C 10.48791027069092 0.7009004950523376 9.65410041809082 1.534310460090637 9.65410041809082 2.558700561523438 L 9.65410041809082 8.955000877380371 L 9.65410041809082 9.655000686645508 L 8.954099655151367 9.655000686645508 L 2.557800054550171 9.655000686645508 C 1.532910108566284 9.655000686645508 0.6991000771522522 10.48881053924561 0.6991000771522522 11.51370048522949 C 0.6991000771522522 12.53809070587158 1.532910108566284 13.37150001525879 2.557800054550171 13.37150001525879 L 8.954099655151367 13.37150001525879 L 9.65410041809082 13.37150001525879 L 9.65410041809082 14.07150077819824 L 9.65410041809082 20.46780014038086 C 9.65410041809082 21.49269104003906 10.48791027069092 22.32649993896484 11.5128002166748 22.32649993896484 M 11.5128002166748 23.0265007019043 C 10.09980010986328 23.0265007019043 8.954099655151367 21.88080024719238 8.954099655151367 20.46780014038086 L 8.954099655151367 14.07150077819824 L 2.557800054550171 14.07150077819824 C 1.144800066947937 14.07150077819824 -0.0008999176206998527 12.92670059204102 -0.0008999176206998527 11.51370048522949 C -0.0008999176206998527 10.10070037841797 1.144800066947937 8.955000877380371 2.557800054550171 8.955000877380371 L 8.954099655151367 8.955000877380371 L 8.954099655151367 2.558700561523438 C 8.954099655151367 1.145700454711914 10.09980010986328 0.0009004852036014199 11.5128002166748 0.0009004852036014199 C 12.92580032348633 0.0009004852036014199 14.07060050964355 1.145700454711914 14.07060050964355 2.558700561523438 L 14.07060050964355 8.955000877380371 L 20.46689987182617 8.955000877380371 C 21.8798999786377 8.955000877380371 23.02560043334961 10.10070037841797 23.02560043334961 11.51370048522949 C 23.02560043334961 12.92670059204102 21.8798999786377 14.07150077819824 20.46689987182617 14.07150077819824 L 14.07060050964355 14.07150077819824 L 14.07060050964355 20.46780014038086 C 14.07060050964355 21.88080024719238 12.92580032348633 23.0265007019043 11.5128002166748 23.0265007019043 Z" stroke="none" fill="#434343"/>
    </g>
  </g>
</svg>
