<svg id="katman_1" data-name="katman 1" xmlns="http://www.w3.org/2000/svg" viewBox="0 0 367 273.76"><defs><style>.cls-1{fill:#7d62da;}.cls-2{fill:#f7d9a4;}.cls-3{fill:#ffd782;}.cls-4{fill:#d9176c;}.cls-5{fill:#f4f4e6;}.cls-6{fill:#e9686a;}.cls-7{fill:#fdbd40;}</style></defs><path class="cls-1" d="M299.48,129.4V285.08H76V129.4a33,33,0,0,1,33-33H266.52a33,33,0,0,1,33,33Z" transform="translate(-76 -96.44)"/><path class="cls-2" d="M436,244v67.88A28.13,28.13,0,0,1,407.88,340H375.36A30.18,30.18,0,1,0,315,340H197a30.18,30.18,0,1,0-60.36,0H104.16A28.15,28.15,0,0,1,76,311.86V285.08H299.48V141.8h67.84A28.09,28.09,0,0,1,392,156.44l40.56,74A28.5,28.5,0,0,1,436,244Z" transform="translate(-76 -96.44)"/><path class="cls-1" d="M375.36,340a30.18,30.18,0,1,1-30.2-30.16A30.18,30.18,0,0,1,375.36,340Z" transform="translate(-76 -96.44)"/><path class="cls-1" d="M197,340a30.18,30.18,0,1,1-30.2-30.16A30.18,30.18,0,0,1,197,340Z" transform="translate(-76 -96.44)"/><path class="cls-3" d="M353.07,340a7.88,7.88,0,1,1-7.89-7.86h0A7.88,7.88,0,0,1,353.07,340Z" transform="translate(-76 -96.44)"/><circle class="cls-3" cx="90.81" cy="243.58" r="7.88"/><path class="cls-4" d="M416,307.8a7,7,0,0,1,0-14h20a7,7,0,0,1,0,14Z" transform="translate(-76 -96.44)"/><path class="cls-4" d="M350.19,273.8h-10a7,7,0,0,1,0-14h10a7,7,0,0,1,0,14Z" transform="translate(-76 -96.44)"/><path class="cls-1" d="M352.4,240.9h83.41a28.74,28.74,0,0,0-3.25-10.42l-29.94-54.67H352.4a11,11,0,0,0-11,11v43.14a11,11,0,0,0,11,11Z" transform="translate(-76 -96.44)"/><path class="cls-5" d="M113.22,137.24h149v96.07a11,11,0,0,1-11,11H124.2a11,11,0,0,1-11-11V137.24Z" transform="translate(-76 -96.44)"/><path class="cls-6" d="M131.85,169.6A18.63,18.63,0,0,0,150.48,151h0V137.24H113.22V151a18.63,18.63,0,0,0,18.63,18.62Z" transform="translate(-76 -96.44)"/><path class="cls-7" d="M169.11,169.6A18.63,18.63,0,0,0,187.74,151h0V137.24H150.48V151a18.63,18.63,0,0,0,18.63,18.62Z" transform="translate(-76 -96.44)"/><path class="cls-6" d="M206.37,169.6A18.63,18.63,0,0,0,225,151h0V137.24H187.74V151a18.63,18.63,0,0,0,18.63,18.62Z" transform="translate(-76 -96.44)"/><path class="cls-7" d="M243.63,169.6A18.63,18.63,0,0,0,262.26,151V137.24H225V151a18.63,18.63,0,0,0,18.63,18.62Z" transform="translate(-76 -96.44)"/></svg>