<svg xmlns="http://www.w3.org/2000/svg" width="15.557" height="15.557" viewBox="0 0 15.557 15.557">
  <g id="down_arrow" transform="translate(-4.949 12.728) rotate(-45)">
    <g id="Union_1" data-name="Union 1" transform="translate(0 0)" fill="#fff">
      <path d="M 15.99930000305176 10.65069961547852 L 9 10.65069961547852 C 8.089799880981445 10.65069961547852 7.349299907684326 9.910200119018555 7.349299907684326 9 L 7.349299907684326 2.000699996948242 C 7.349299907684326 1.090499997138977 8.089799880981445 0.3499999940395355 9 0.3499999940395355 C 9.909700393676758 0.3499999940395355 10.64980030059814 1.090499997138977 10.64980030059814 2.000699996948242 L 10.64980030059814 7.000199794769287 L 10.64980030059814 7.350200176239014 L 10.99979972839355 7.350200176239014 L 15.99930000305176 7.350200176239014 C 16.90950012207031 7.350200176239014 17.64999961853027 8.090299606323242 17.64999961853027 9 C 17.64999961853027 9.910200119018555 16.90950012207031 10.65069961547852 15.99930000305176 10.65069961547852 Z" stroke="none"/>
      <path d="M 15.99930000305176 10.30070018768311 C 16.71651077270508 10.30070018768311 17.29999923706055 9.717209815979004 17.29999923706055 9 C 17.29999923706055 8.283289909362793 16.71651077270508 7.700200080871582 15.99930000305176 7.700200080871582 L 10.99979972839355 7.700200080871582 L 10.29979991912842 7.700200080871582 L 10.29979991912842 7.000199794769287 L 10.29979991912842 2.000699996948242 C 10.29979991912842 1.283489942550659 9.716710090637207 0.699999988079071 9 0.699999988079071 C 8.282790184020996 0.699999988079071 7.699299812316895 1.283489942550659 7.699299812316895 2.000699996948242 L 7.699299812316895 9 C 7.699299812316895 9.717209815979004 8.282790184020996 10.30070018768311 9 10.30070018768311 L 15.99930000305176 10.30070018768311 M 15.99930000305176 11.00069999694824 L 9 11.00069999694824 C 7.894800186157227 11.00069999694824 6.999300003051758 10.10519981384277 6.999300003051758 9 L 6.999300003051758 2.000699996948242 C 6.999300003051758 0.8955000042915344 7.894800186157227 -1.525878978725359e-09 9 -1.525878978725359e-09 C 10.10429954528809 -1.525878978725359e-09 10.99979972839355 0.8955000042915344 10.99979972839355 2.000699996948242 L 10.99979972839355 7.000199794769287 L 15.99930000305176 7.000199794769287 C 17.10449981689453 7.000199794769287 18 7.895699977874756 18 9 C 18 10.10519981384277 17.10449981689453 11.00069999694824 15.99930000305176 11.00069999694824 Z" stroke="none" fill="#6d6659"/>
    </g>
  </g>
</svg>
