<svg xmlns="http://www.w3.org/2000/svg" width="14.074" height="15.219" viewBox="0 0 14.074 15.219">
  <g id="edit" transform="translate(-291.662 -414.64)">
    <g id="Group_338" data-name="Group 338" transform="translate(293.07 414.64)">
      <g id="Group_337" data-name="Group 337">
        <path id="Path_185" data-name="Path 185" d="M301.164,414.827l-8.047,8.047a.634.634,0,0,0-.187.45v3.084a.635.635,0,0,0,.635.635h3.084a.634.634,0,0,0,.45-.187l8.047-8.047a.635.635,0,0,0,0-.9l-3.083-3.083A.635.635,0,0,0,301.164,414.827Zm-5.1,10.81h-1.093a.635.635,0,0,1-.635-.635v-1.094a.634.634,0,0,1,.187-.45l6.641-6.641a.635.635,0,0,1,.9,0l1.093,1.092a.635.635,0,0,1,0,.9l-6.642,6.641A.634.634,0,0,1,296.065,425.636Z" transform="translate(-292.93 -414.64)" fill="#fff"/>
      </g>
    </g>
    <rect id="Rectangle_70" data-name="Rectangle 70" width="14.074" height="1.408" rx="0.387" transform="translate(291.662 428.451)" fill="#fff"/>
  </g>
</svg>
