<svg xmlns="http://www.w3.org/2000/svg" width="20.957" height="21.627" viewBox="0 0 20.957 21.627">
  <g id="file" transform="translate(-7.932)">
    <path id="Path_34" data-name="Path 34" d="M95.681,267.662h4.553v1.267H95.681Z" transform="translate(-84.042 -256.356)" fill="#fff"/>
    <path id="Path_35" data-name="Path 35" d="M95.681,207.659h1.267v1.267H95.681Z" transform="translate(-84.042 -198.887)" fill="#fff"/>
    <path id="Path_36" data-name="Path 36" d="M158.494,207.659h6.232v1.267h-6.232Z" transform="translate(-144.202 -198.887)" fill="#fff"/>
    <path id="Path_37" data-name="Path 37" d="M95.019,147.979h3.128v1.267H95.019Z" transform="translate(-83.408 -141.728)" fill="#fff"/>
    <path id="Path_38" data-name="Path 38" d="M204.034,147.979h4.309v1.267h-4.309Z" transform="translate(-187.819 -141.728)" fill="#fff"/>
    <path id="Path_39" data-name="Path 39" d="M95.019,327.666h3.128v1.267H95.019Z" transform="translate(-83.408 -313.825)" fill="#fff"/>
    <path id="Path_40" data-name="Path 40" d="M95.019,87.975h8.913v1.267H95.019Z" transform="translate(-83.408 -84.259)" fill="#fff"/>
    <path id="Path_41" data-name="Path 41" d="M24.216,11.133V0H7.932l.06,16.975a4.658,4.658,0,0,0,4.652,4.652H23.625a5.264,5.264,0,0,0,.591-10.495ZM9.3,17.476a2.442,2.442,0,0,0,1.157.287h1.493v1.362a2.484,2.484,0,0,0,.315,1.213A3.392,3.392,0,0,1,9.3,17.476Zm5.155,2.884a1.238,1.238,0,0,1-1.238-1.235V16.5h-2.76a1.167,1.167,0,0,1-.839-.347,1.255,1.255,0,0,1-.355-.909L9.2,1.267H22.949v9.875a5.235,5.235,0,0,0-2.425.97v-.806H17.7v1.267h2.28a5.3,5.3,0,0,0-1.023,1.368v-.1H16.215v1.267h2.3A5.26,5.26,0,0,0,20.2,20.36H14.451Zm9.174,0a4,4,0,1,1,4-4A4,4,0,0,1,23.625,20.36Z" transform="translate(0)" fill="#fff"/>
    <path id="Path_42" data-name="Path 42" d="M322.135,343.371l-.843-.843-.9.9,1.739,1.739,3.25-3.25-.9-.9Z" transform="translate(-299.265 -326.612)" fill="#fff"/>
  </g>
</svg>
