<svg xmlns="http://www.w3.org/2000/svg" width="20.399" height="13.301" viewBox="0 0 20.399 13.301">
  <g id="eye" transform="translate(0.268 -90.75)">
    <path id="Path_42" data-name="Path 42" d="M155.073,159.146A4.073,4.073,0,1,0,151,155.073,4.078,4.078,0,0,0,155.073,159.146Zm0-6.983a2.909,2.909,0,1,1-2.909,2.909A2.913,2.913,0,0,1,155.073,152.164Z" transform="translate(-145.142 -57.672)" fill="#f5692c"/>
    <path id="Path_43" data-name="Path 43" d="M212.746,214.491A1.746,1.746,0,1,0,211,212.746,1.748,1.748,0,0,0,212.746,214.491Zm0-2.328a.582.582,0,1,1-.582.582A.583.583,0,0,1,212.746,212.164Z" transform="translate(-202.815 -115.345)" fill="#f5692c"/>
    <path id="Path_44" data-name="Path 44" d="M9.931,103.8c3.881,0,7.8-3.26,9.82-6.06a.582.582,0,0,0,0-.682C17.659,94.166,13.727,91,9.931,91c-3.881,0-7.8,3.26-9.82,6.06a.582.582,0,0,0,0,.682C2.2,100.636,6.135,103.8,9.931,103.8Zm0-11.638c3.282,0,6.556,2.678,8.613,5.237-.976,1.212-4.524,5.237-8.613,5.237-3.282,0-6.556-2.678-8.613-5.237C2.294,96.189,5.842,92.164,9.931,92.164Z" transform="translate(0)" fill="#f5692c" stroke="#f5692c" stroke-width="0.5"/>
  </g>
</svg>
