<svg xmlns="http://www.w3.org/2000/svg" width="24.253" height="20.371" viewBox="0 0 24.253 20.371">
  <g id="Group_132" data-name="Group 132" transform="translate(-364.923 -1346.413)">
    <path class="in" id="Path_33" data-name="Path 33" d="M1847.05,1349.044s5.669-4.1,9.783,0-1.567,11.371-1.567,11.371l-4.272,3.806-3.245,1.754-3.071-.523-4.9-3.937-3.27-4.506s-2.772-5.145,1.464-8.581S1847.05,1349.044,1847.05,1349.044Z" transform="translate(-1470)" opacity="0.477"/>
    <g class="in" id="heart-shape-outline-with-lining-at-right-edge" transform="translate(364.923 1332.961)">
      <path data-name="Path 32" d="M20.5,14.288a7.544,7.544,0,0,0-8.374.994,7.574,7.574,0,0,0-8.381-.994A6.949,6.949,0,0,0,0,20.407a6.51,6.51,0,0,0,.336,2.079c1.131,4.9,8.392,11.338,11.795,11.338S22.781,27.38,23.893,22.569a6.75,6.75,0,0,0,.36-2.162A6.945,6.945,0,0,0,20.5,14.288ZM22.241,22.1c-1.052,4.556-7.909,10.005-10.111,10.005C9.68,32.106,3,26.4,1.987,22.018a4.943,4.943,0,0,1-.268-1.61,5.235,5.235,0,0,1,2.833-4.6,5.679,5.679,0,0,1,2.675-.661,5.612,5.612,0,0,1,4.255,1.92l.655.75.646-.75A5.8,5.8,0,0,1,19.7,15.805a5.235,5.235,0,0,1,2.833,4.6A5.309,5.309,0,0,1,22.241,22.1Zm-.671-1.694a4.192,4.192,0,0,1-.226,1.345.422.422,0,0,1-.407.288.417.417,0,0,1-.137-.019.429.429,0,0,1-.268-.545,3.349,3.349,0,0,0,.186-1.069,3.5,3.5,0,0,0-1.9-3.082,3.759,3.759,0,0,0-1.789-.449.427.427,0,1,1,0-.853,4.611,4.611,0,0,1,2.191.545A4.356,4.356,0,0,1,21.57,20.407Z" fill="#fff"/>
    </g>
  </g>
</svg>
