<svg height="20" fill="#8d94ad" viewBox="0 0 24 20" width="24" xmlns="http://www.w3.org/2000/svg"><g fill-rule="evenodd"><g><path d="M19.787.83C18.85.311 17.773.014 16.625.014c-2.026 0-3.84.923-5.037 2.37C10.384.938 8.572.015 6.544.015c-1.145 0-2.22.297-3.16.814C1.367 1.946 0 4.094 0 6.563 0 7.27.115 7.947.323 8.58 1.447 13.631 11.588 20 11.588 20S21.722 13.63 22.848 8.58c.207-.634.324-1.312.324-2.018 0-2.468-1.367-4.615-3.385-5.734z" transform="translate(-250 -680) translate(0 655) translate(232 25) translate(18)"></path></g></g></svg>