<svg id="Layer_1" data-name="Layer 1" xmlns="http://www.w3.org/2000/svg" viewBox="0 0 600.26 118.64">
  <defs>
    <style>
      .cls-1 {
        fill: #ed6a31;
      }

      .cls-2 {
        fill: #ef7901;
      }

      .cls-3 {
        fill: #967fb7;
      }

      .cls-4 {
        fill: #79bfeb;
      }

      .cls-5 {
        fill: #e5de00;
      }

      .cls-6 {
        fill: #e41345;
      }

      .cls-7 {
        fill: #e50068;
      }

      .cls-8 {
        fill: #f4af00;
      }

      .cls-9 {
        fill: #92bf26;
      }

      .cls-10 {
        font-size: 92.97px;
        fill: #fff;
        font-family: SFEspressoShack-Bold, SF Espresso Shack;
        font-weight: 700;
      }
    </style>
  </defs>
  <g>
    <path class="cls-1" d="M141.18,259.52a19.3,19.3,0,1,0,19.74,19.3A19.54,19.54,0,0,0,141.18,259.52Z" transform="translate(-62.81 -223.21)"/>
    <path class="cls-1" d="M174.91,234.05a57.92,57.92,0,0,0-53.47-7.39v25.45c22.42-15.89,53.47.12,53.47,26.71v44.77A54.87,54.87,0,0,0,174.91,234.05Z" transform="translate(-62.81 -223.21)"/>
    <path class="cls-2" d="M121,266.05a4.13,4.13,0,1,1-4.13-4A4.08,4.08,0,0,1,121,266.05Z" transform="translate(-62.81 -223.21)"/>
    <path class="cls-3" d="M81.65,280.89a4.28,4.28,0,1,1-4.28-4.17A4.23,4.23,0,0,1,81.65,280.89Z" transform="translate(-62.81 -223.21)"/>
    <path class="cls-4" d="M78.8,268.47a3.69,3.69,0,1,1-3.68-3.61A3.65,3.65,0,0,1,78.8,268.47Z" transform="translate(-62.81 -223.21)"/>
    <path class="cls-5" d="M69.42,274.6a3.31,3.31,0,1,1-3.3-3.23A3.27,3.27,0,0,1,69.42,274.6Z" transform="translate(-62.81 -223.21)"/>
    <path class="cls-6" d="M122.61,290.12a5.17,5.17,0,1,1-5.17-5.05A5.11,5.11,0,0,1,122.61,290.12Z" transform="translate(-62.81 -223.21)"/>
    <path class="cls-7" d="M92.5,263.42a5.17,5.17,0,1,1-5.17-5.05A5.12,5.12,0,0,1,92.5,263.42Z" transform="translate(-62.81 -223.21)"/>
    <path class="cls-8" d="M95.09,293.07a6.72,6.72,0,1,1-6.72-6.58A6.65,6.65,0,0,1,95.09,293.07Z" transform="translate(-62.81 -223.21)"/>
    <path class="cls-9" d="M113.78,278.45a7.24,7.24,0,1,1-7.24-7.08A7.16,7.16,0,0,1,113.78,278.45Z" transform="translate(-62.81 -223.21)"/>
    <path class="cls-1" d="M108.32,286.36a8.67,8.67,0,0,1-1.78.19,8.11,8.11,0,1,1,0-16.21,9.08,9.08,0,0,1,.91.05V234.05a56,56,0,0,0-18.81,23.43,6.08,6.08,0,1,1-3.47,11.62,54.65,54.65,0,0,0-.87,9.72,56,56,0,0,0,.51,7.5,7.88,7.88,0,0,1,3.56-.85,7.59,7.59,0,0,1,.45,15.17c11.4,26.11,42.54,41,72.1,30.34V305.53C140.88,319.72,113.5,308.39,108.32,286.36Z" transform="translate(-62.81 -223.21)"/>
  </g>
  <text class="cls-10" transform="translate(143.36 96.9) scale(1.06 1)">ÖYÜK.AZ</text>
</svg>
