<svg xmlns="http://www.w3.org/2000/svg" width="16.949" height="20.697" viewBox="0 0 16.949 20.697">
  <g id="place_1_" data-name="place (1)" transform="translate(-48.581 0.25)">
    <g id="Group_371" data-name="Group 371" transform="translate(48.886)">
      <g id="Group_370" data-name="Group 370">
        <path id="Path_192" data-name="Path 192" d="M63.76,3.512a8.155,8.155,0,0,0-13.407,0,8.156,8.156,0,0,0-.95,7.514,6.423,6.423,0,0,0,1.184,1.954l5.932,6.968a.706.706,0,0,0,1.075,0l5.93-6.966a6.429,6.429,0,0,0,1.184-1.952A8.157,8.157,0,0,0,63.76,3.512Zm-.375,7.024a5.037,5.037,0,0,1-.931,1.526l0,0L57.056,18.4l-5.4-6.34a5.04,5.04,0,0,1-.933-1.53,6.746,6.746,0,0,1,.789-6.216,6.742,6.742,0,0,1,11.084,0A6.748,6.748,0,0,1,63.385,10.536Z" transform="translate(-48.886)" fill="#f5692c" stroke="#f5692c" stroke-width="0.5"/>
      </g>
    </g>
    <g id="Group_373" data-name="Group 373" transform="translate(53.101 4.19)">
      <g id="Group_372" data-name="Group 372">
        <path id="Path_193" data-name="Path 193" d="M159.709,106.219a3.955,3.955,0,1,0,3.955,3.955A3.959,3.959,0,0,0,159.709,106.219Zm0,6.5a2.542,2.542,0,1,1,2.542-2.542A2.545,2.545,0,0,1,159.709,112.716Z" transform="translate(-155.754 -106.219)" fill="#f5692c" stroke="#f5692c" stroke-width="0.5"/>
      </g>
    </g>
  </g>
</svg>
