<svg xmlns="http://www.w3.org/2000/svg" width="32.299" height="36.749" viewBox="0 0 32.299 36.749">
  <g id="upload" transform="translate(-31)">
    <path id="Path_177" data-name="Path 177" d="M62.758,8.792,47.685.143a1.077,1.077,0,0,0-1.072,0L31.541,8.792A1.077,1.077,0,0,0,31,9.726v17.3a1.077,1.077,0,0,0,.541.934l15.073,8.649a1.077,1.077,0,0,0,1.072,0l15.073-8.649a1.077,1.077,0,0,0,.541-.934V9.726A1.077,1.077,0,0,0,62.758,8.792Z" fill="#1fe398"/>
    <path id="Path_178" data-name="Path 178" d="M271.609,8.792,256.536.143A1.076,1.076,0,0,0,256,0V36.749a1.076,1.076,0,0,0,.536-.143l15.073-8.649a1.077,1.077,0,0,0,.541-.934V9.726A1.077,1.077,0,0,0,271.609,8.792Z" transform="translate(-208.85 0)" fill="#17ba7c"/>
    <g id="Group_327" data-name="Group 327" transform="translate(40.243 9.044)">
      <path id="Path_179" data-name="Path 179" d="M173.324,133.069l-5.83-6.7a1.077,1.077,0,0,0-1.624,0l-5.83,6.7a1.077,1.077,0,0,0,.812,1.783h2.241V140a1.077,1.077,0,0,0,1.077,1.077h5.024A1.077,1.077,0,0,0,170.27,140v-5.144h2.241a1.077,1.077,0,0,0,.812-1.783Z" transform="translate(-159.775 -126)" fill="#f9f9f9"/>
      <path id="Path_180" data-name="Path 180" d="M212.1,358.153h-5.024a1.077,1.077,0,1,1,0-2.153H212.1a1.077,1.077,0,0,1,0,2.153Z" transform="translate(-202.682 -339.492)" fill="#f9f9f9"/>
    </g>
    <g id="Group_328" data-name="Group 328" transform="translate(47.15 9.044)">
      <path id="Path_181" data-name="Path 181" d="M262.642,133.069l-5.83-6.7A1.077,1.077,0,0,0,256,126v15.073h2.512A1.077,1.077,0,0,0,259.589,140v-5.144h2.241a1.077,1.077,0,0,0,.812-1.783Z" transform="translate(-256 -126)" fill="#dfe4ea"/>
      <path id="Path_182" data-name="Path 182" d="M258.512,356H256v2.153h2.512a1.077,1.077,0,0,0,0-2.153Z" transform="translate(-256 -339.492)" fill="#dfe4ea"/>
    </g>
  </g>
</svg>
