<svg xmlns="http://www.w3.org/2000/svg" xmlns:xlink="http://www.w3.org/1999/xlink" width="32.299" height="36.749" viewBox="0 0 32.299 36.749">
  <defs>
    <clipPath id="clip-path">
      <path id="Path_183" data-name="Path 183" d="M271.609,8.792,256.536.143A1.076,1.076,0,0,0,256,0V36.749a1.076,1.076,0,0,0,.536-.143l15.073-8.649a1.077,1.077,0,0,0,.541-.934V9.726A1.077,1.077,0,0,0,271.609,8.792Z" transform="translate(-256 0)" fill="#fc495c"/>
    </clipPath>
  </defs>
  <g id="upload" transform="translate(-31)">
    <path id="Path_177" data-name="Path 177" d="M62.758,8.792,47.685.143a1.077,1.077,0,0,0-1.072,0L31.541,8.792A1.077,1.077,0,0,0,31,9.726v17.3a1.077,1.077,0,0,0,.541.934l15.073,8.649a1.077,1.077,0,0,0,1.072,0l15.073-8.649a1.077,1.077,0,0,0,.541-.934V9.726A1.077,1.077,0,0,0,62.758,8.792Z" transform="translate(0 0)" fill="red"/>
    <path id="Path_178" data-name="Path 178" d="M271.609,8.792,256.536.143A1.076,1.076,0,0,0,256,0V36.749a1.076,1.076,0,0,0,.536-.143l15.073-8.649a1.077,1.077,0,0,0,.541-.934V9.726A1.077,1.077,0,0,0,271.609,8.792Z" transform="translate(-208.85 0)" fill="#c60000"/>
    <g id="diamond" transform="translate(36.906 11.541)">
      <path id="Path_48" data-name="Path 48" d="M171.517,13.244l-1.646-4.967h-3.4l-1.636,4.967Z" transform="translate(-158.01 -8.277)" fill="#fff"/>
      <path id="Path_49" data-name="Path 49" d="M3.643,8.277,0,13.244H5.516L7.152,8.277Z" transform="translate(0 -8.277)" fill="#fff"/>
      <path id="Path_50" data-name="Path 50" d="M325.309,13.244l-3.643-4.967h-3.521l1.646,4.967Z" transform="translate(-304.976 -8.277)" fill="#fff"/>
      <path id="Path_51" data-name="Path 51" d="M294.277,158.277l-3.812,10.866,9.029-10.866Z" transform="translate(-279.165 -152.068)" fill="#fff"/>
      <path id="Path_52" data-name="Path 52" d="M160.542,169.681l3.623-10.833h-7.3Z" transform="translate(-150.376 -152.615)" fill="#fff"/>
      <path id="Path_53" data-name="Path 53" d="M.154,158.277,9.183,169.14,5.369,158.277Z" transform="translate(-0.148 -152.068)" fill="#fff"/>
    </g>
    <g id="Mask_Group_1" data-name="Mask Group 1" transform="translate(47.15 0)" clip-path="url(#clip-path)">
      <g id="diamond-2" data-name="diamond" transform="translate(-10.243 11.541)">
        <path id="Path_48-2" data-name="Path 48" d="M171.517,13.244l-1.646-4.967h-3.4l-1.636,4.967Z" transform="translate(-158.01 -8.277)" fill="#dfe4ea"/>
        <path id="Path_49-2" data-name="Path 49" d="M3.643,8.277,0,13.244H5.516L7.152,8.277Z" transform="translate(0 -8.277)" fill="#dfe4ea"/>
        <path id="Path_50-2" data-name="Path 50" d="M325.309,13.244l-3.643-4.967h-3.521l1.646,4.967Z" transform="translate(-304.976 -8.277)" fill="#dfe4ea"/>
        <path id="Path_51-2" data-name="Path 51" d="M294.277,158.277l-3.812,10.866,9.029-10.866Z" transform="translate(-279.165 -152.068)" fill="#dfe4ea"/>
        <path id="Path_52-2" data-name="Path 52" d="M160.542,169.681l3.623-10.833h-7.3Z" transform="translate(-150.376 -152.615)" fill="#dfe4ea"/>
        <path id="Path_53-2" data-name="Path 53" d="M.154,158.277,9.183,169.14,5.369,158.277Z" transform="translate(-0.148 -152.068)" fill="#dfe4ea"/>
      </g>
    </g>
  </g>
</svg>
