<svg xmlns="http://www.w3.org/2000/svg" xmlns:xlink="http://www.w3.org/1999/xlink" width="32.299" height="36.749" viewBox="0 0 32.299 36.749">
  <defs>
    <clipPath id="clip-path">
      <path id="Path_184" data-name="Path 184" d="M271.609,8.792,256.536.143A1.076,1.076,0,0,0,256,0V36.749a1.076,1.076,0,0,0,.536-.143l15.073-8.649a1.077,1.077,0,0,0,.541-.934V9.726A1.077,1.077,0,0,0,271.609,8.792Z" transform="translate(-256 0)" fill="#dfe4ea"/>
    </clipPath>
  </defs>
  <g id="Group_329" data-name="Group 329" transform="translate(-715.396 -887.798)">
    <g id="upload" transform="translate(715.396 887.798)">
      <path id="Path_177" data-name="Path 177" d="M62.758,8.792,47.685.143a1.077,1.077,0,0,0-1.072,0L31.541,8.792A1.077,1.077,0,0,0,31,9.726v17.3a1.077,1.077,0,0,0,.541.934l15.073,8.649a1.077,1.077,0,0,0,1.072,0l15.073-8.649a1.077,1.077,0,0,0,.541-.934V9.726A1.077,1.077,0,0,0,62.758,8.792Z" transform="translate(-31 0)" fill="#ffce00"/>
      <path id="Path_178" data-name="Path 178" d="M271.609,8.792,256.536.143A1.076,1.076,0,0,0,256,0V36.749a1.076,1.076,0,0,0,.536-.143l15.073-8.649a1.077,1.077,0,0,0,.541-.934V9.726A1.077,1.077,0,0,0,271.609,8.792Z" transform="translate(-239.85 0)" fill="#d3aa00"/>
    </g>
    <path id="Union_14" data-name="Union 14" d="M2.9,15a.566.566,0,0,1-.518-.6V12.947a.566.566,0,0,1,.518-.6H16.281a.566.566,0,0,1,.517.6V14.4a.566.566,0,0,1-.517.6Zm6.682-3.945H2.747a.54.54,0,0,1-.5-.458L1.124,5.346A1.5,1.5,0,0,1,1.532,2.4,1.517,1.517,0,0,1,3.064,3.9a1.492,1.492,0,0,1-.693,1.255L3.533,6.523a1.818,1.818,0,0,0,1.372.666,1.862,1.862,0,0,0,1.544-.9l2.266-3.5A1.494,1.494,0,0,1,7.967,1.5a1.533,1.533,0,0,1,3.065,0,1.489,1.489,0,0,1-.641,1.221l2.282,3.564a1.863,1.863,0,0,0,1.548.905,1.791,1.791,0,0,0,1.366-.66l1.132-1.32A1.5,1.5,0,0,1,15.936,3.9a1.532,1.532,0,1,1,2.1,1.393L16.91,10.557a.541.541,0,0,1-.5.457l-6.831.041Z" transform="translate(720.477 897.798)" fill="#fff"/>
    <g id="Mask_Group_2" data-name="Mask Group 2" transform="translate(731.546 887.798)" clip-path="url(#clip-path)">
      <path id="Union_15" data-name="Union 15" d="M2.9,15a.566.566,0,0,1-.518-.6V12.947a.566.566,0,0,1,.518-.6H16.281a.566.566,0,0,1,.517.6V14.4a.566.566,0,0,1-.517.6Zm6.682-3.945H2.747a.54.54,0,0,1-.5-.458L1.124,5.346A1.5,1.5,0,0,1,1.532,2.4,1.517,1.517,0,0,1,3.064,3.9a1.492,1.492,0,0,1-.693,1.255L3.533,6.523a1.818,1.818,0,0,0,1.372.666,1.862,1.862,0,0,0,1.544-.9l2.266-3.5A1.494,1.494,0,0,1,7.967,1.5a1.533,1.533,0,0,1,3.065,0,1.489,1.489,0,0,1-.641,1.221l2.282,3.564a1.863,1.863,0,0,0,1.548.905,1.791,1.791,0,0,0,1.366-.66l1.132-1.32A1.5,1.5,0,0,1,15.936,3.9a1.532,1.532,0,1,1,2.1,1.393L16.91,10.557a.541.541,0,0,1-.5.457l-6.831.041Z" transform="translate(-11.069 10)" fill="#dfe4ea"/>
    </g>
  </g>
</svg>
