<svg xmlns="http://www.w3.org/2000/svg" width="19.047" height="19.047" viewBox="0 0 19.047 19.047">
  <path id="telephone" d="M18.018,9.521a.732.732,0,0,1-.732-.732A7.331,7.331,0,0,0,9.963,1.466.732.732,0,1,1,9.963,0,8.828,8.828,0,0,1,18.75,8.789.732.732,0,0,1,18.018,9.521Zm-5.126-.732A2.932,2.932,0,0,0,9.963,5.86a.732.732,0,1,0,0,1.464,1.466,1.466,0,0,1,1.464,1.464.732.732,0,1,0,1.464,0Zm2.929,0A5.864,5.864,0,0,0,9.963,2.931a.732.732,0,1,0,0,1.464,4.4,4.4,0,0,1,4.393,4.393.732.732,0,1,0,1.464,0Zm-2.913,9.958a.732.732,0,0,0,.5-.214L16.046,15.9a.732.732,0,0,0,0-1.036L12.064,10.88a.732.732,0,0,0-1.036,0l-.993.993A9.2,9.2,0,0,1,6.876,8.694l.983-.983a.736.736,0,0,0,0-1.036L3.854,2.669a.732.732,0,0,0-1.036,0l-2.6,2.6A.732.732,0,0,0,0,5.774C-.007,11.141,7.272,18.68,12.876,18.747ZM3.336,4.223l2.97,2.97-.815.815a.732.732,0,0,0-.19.706c.384,1.546,3.194,4.352,4.71,4.736a.732.732,0,0,0,.708-.189l.828-.828,2.946,2.946L12.6,17.268C8.542,17.03,2.011,11.385,1.486,6.073Z" transform="translate(0.145 0.15)" fill="#f5692c" stroke="#f5692c" stroke-width="0.3"/>
</svg>
