<svg xmlns="http://www.w3.org/2000/svg" width="19.042" height="19.042" viewBox="0 0 19.042 19.042">
  <g id="exchange" transform="translate(0)">
    <path id="Path_160" data-name="Path 160" d="M9.521,1.584a7.954,7.954,0,0,1,6.347,3.174h-.793V6.344h2.38a.793.793,0,0,0,.753-.543L19,3.422,17.5,2.92l-.315.945A9.52,9.52,0,0,0,0,9.518H1.587A7.943,7.943,0,0,1,9.521,1.584Z" transform="translate(0 0.003)" fill="#ef3a3a"/>
    <path id="Path_161" data-name="Path 161" d="M17.824,96a7.934,7.934,0,0,1-14.281,4.76h.793V99.174H1.956a.793.793,0,0,0-.753.543L.41,102.1l1.505.5.315-.945A9.52,9.52,0,0,0,19.411,96Z" transform="translate(-0.369 -86.479)" fill="#ef3a3a"/>
  </g>
</svg>
