<svg fill="#8d94ad" height="20" viewBox="0 0 20 20" width="20" xmlns="http://www.w3.org/2000/svg"><g fill-rule="evenodd"><path d="M9.898 0C4.432 0 0 4.431 0 9.898c0 5.466 4.432 9.898 9.898 9.898 5.467 0 9.899-4.432 9.899-9.898C19.797 4.43 15.365 0 9.898 0zm0 2.96c1.809 0 3.275 1.466 3.275 3.273 0 1.809-1.466 3.274-3.275 3.274-1.808 0-3.273-1.465-3.273-3.274 0-1.807 1.465-3.273 3.273-3.273zm-.002 14.248c-1.804 0-3.456-.657-4.73-1.745-.31-.264-.49-.653-.49-1.06 0-1.833 1.484-3.3 3.318-3.3h3.81c1.834 0 3.312 1.467 3.312 3.3 0 .408-.178.795-.489 1.06-1.274 1.088-2.927 1.745-4.73 1.745z" transform="translate(-326 -680) translate(0 655) translate(306 25) translate(20)"></path></g></svg>