<svg id="Capa_1" enable-background="new 0 0 502 502" height="512" viewBox="0 0 502 502" width="512" xmlns="http://www.w3.org/2000/svg" xmlns:xlink="http://www.w3.org/1999/xlink"><linearGradient id="lg1"><stop offset="0" stop-color="#fd8943"/><stop offset="1" stop-color="#fdb58a"/></linearGradient><linearGradient id="SVGID_1_" gradientUnits="userSpaceOnUse" x1="93.399" x2="93.399" xlink:href="#lg1" y1="454.932" y2="342.829"/><linearGradient id="lg2"><stop offset="0" stop-color="#fdb58a"/><stop offset="1" stop-color="#fd8943"/></linearGradient><linearGradient id="SVGID_2_" gradientUnits="userSpaceOnUse" x1="257.612" x2="257.612" xlink:href="#lg2" y1="502" y2="334.079"/><linearGradient id="lg3"><stop offset="0" stop-color="#fbe7b4"/><stop offset="1" stop-color="#fff5e3"/></linearGradient><linearGradient id="SVGID_3_" gradientUnits="userSpaceOnUse" x1="257.611" x2="257.611" xlink:href="#lg3" y1="415.954" y2="311.866"/><linearGradient id="SVGID_4_" gradientUnits="userSpaceOnUse" x1="85.405" x2="176.771" xlink:href="#lg1" y1="121.381" y2="30.015"/><linearGradient id="lg4"><stop offset="0" stop-color="#fff5e3"/><stop offset="1" stop-color="#fbe7b4"/></linearGradient><linearGradient id="SVGID_5_" gradientUnits="userSpaceOnUse" x1="69.581" x2="114.804" xlink:href="#lg4" y1="137.282" y2="58.953"/><linearGradient id="SVGID_6_" gradientUnits="userSpaceOnUse" x1="309.926" x2="458.34" xlink:href="#lg1" y1="84.67" y2="84.67"/><linearGradient id="SVGID_7_" gradientUnits="userSpaceOnUse" x1="419.372" x2="419.372" xlink:href="#lg4" y1="161.757" y2="36.09"/><linearGradient id="SVGID_8_" gradientUnits="userSpaceOnUse" x1="257.611" x2="257.611" xlink:href="#lg2" y1="229.559" y2="0"/><linearGradient id="SVGID_9_" gradientUnits="userSpaceOnUse" x1="257.611" x2="257.611" xlink:href="#lg3" y1="328.225" y2="191.167"/><linearGradient id="SVGID_10_" gradientUnits="userSpaceOnUse" x1="190.538" x2="190.538" xlink:href="#lg4" y1="100.97" y2="63.759"/><linearGradient id="SVGID_11_" gradientUnits="userSpaceOnUse" x1="324.684" x2="324.684" xlink:href="#lg4" y1="100.97" y2="63.759"/><g><path d="m127.849 364.43c-18.861-18.861-45.257-25.404-68.89-19.497-9.575 2.393-17.116 9.934-19.509 19.509-5.907 23.633.636 50.029 19.497 68.89 22.767 22.767 56.514 27.585 83.126 14.224 13.362-26.612 8.543-60.359-14.224-83.126z" fill="url(#SVGID_1_)"/><path d="m404.472 380.319c-5.543-20.549-13.863-35.585-21.852-46.241h-250.018c-7.989 10.655-16.309 25.691-21.852 46.241-7.749 28.729-1.634 59.422 16.279 83.179 9.152 12.129 20.87 21.752 34.112 28.348 6.334 3.158 13.02 5.61 19.933 7.319l7.518-4.321 7.518 6.805c2.716.23 5.453.351 8.204.351h45.779l7.52-4.037 7.516 4.037h45.779c2.752 0 5.488-.121 8.204-.351l7.518-6.521 7.518 4.035c21.351-5.28 40.519-17.736 54.045-35.664 12.801-16.971 19.577-37.49 19.577-58.299 0-8.311-1.083-16.681-3.298-24.881z" fill="url(#SVGID_2_)"/><path d="m382.62 334.079c-7.899 25.29-35.545 81.876-125.009 81.876s-117.11-56.585-125.009-81.876c12.099-16.109 23.476-22.213 23.476-22.213h203.065s11.378 6.104 23.477 22.213z" fill="url(#SVGID_3_)"/><path d="m125.782 161.757c20.779 1.792 42.176-5.249 58.078-21.151 28.582-28.582 28.582-74.922 0-103.503s-89.099-42.758-117.68-14.176c-3.857 3.857-6.929 8.3-9.299 13.163z" fill="url(#SVGID_4_)"/><path d="m125.782 161.757c22.315-28.711 20.304-70.207-6.076-96.587-15.143-15.143-39.251-26.241-62.824-29.08-15.188 31.174-1.25 79.791 23.475 104.516 12.679 12.68 28.855 19.722 45.425 21.151z" fill="url(#SVGID_5_)"/><path d="m389.44 161.757c-20.779 1.792-42.176-5.249-58.078-21.151-28.582-28.582-28.582-74.922 0-103.503 28.582-28.582 89.098-42.758 117.68-14.176 3.857 3.857 6.929 8.3 9.299 13.163z" fill="url(#SVGID_6_)"/><path d="m389.44 161.757c-22.315-28.711-20.304-70.207 6.076-96.587 15.143-15.143 39.251-26.241 62.824-29.08 15.188 31.174 1.25 79.791-23.475 104.516-12.68 12.68-28.856 19.722-45.425 21.151z" fill="url(#SVGID_7_)"/><path d="m89.268 229.559c-4.36-14.866-6.275-30.743-5.273-47.153l1.233-20.228c2.777-45.569 23.055-86.106 54.039-115.266 30.995-29.15 72.695-46.912 118.344-46.912 91.288 0 166.819 71.05 172.382 162.178l1.233 20.228c1.002 16.409-.912 32.287-5.273 47.153z" fill="url(#SVGID_8_)"/><path d="m425.953 229.559c-16.68 56.736-69.145 98.666-131.905 98.666h-72.874c-62.76 0-115.225-41.93-131.905-98.666l1.093-1.093c23.887-23.877 56.274-37.299 90.055-37.299h154.389c33.781 0 66.168 13.422 90.055 37.299z" fill="url(#SVGID_9_)"/><path d="m284.297 167.685c14.287 8.926 23.79 24.78 23.79 42.861 0 27.877-22.599 40.487-50.476 40.487s-50.476-12.61-50.476-40.487c0-18.081 9.503-33.935 23.79-42.861z" fill="#fff"/><g><ellipse cx="135.287" cy="198.53" fill="#fa5f7e" rx="20.789" ry="16.707"/><ellipse cx="379.934" cy="198.53" fill="#fa5f7e" rx="20.789" ry="16.707"/><circle cx="170.928" cy="157.307" fill="#fff" r="41.224"/><circle cx="344.293" cy="157.307" fill="#fff" r="41.224"/><g fill="#383842"><circle cx="170.928" cy="157.307" r="24.569"/><circle cx="344.293" cy="157.307" r="24.569"/></g></g><path d="m257.611 216.733c-7 0-14.001-2.647-19.712-7.943-2.025-1.877-2.145-5.041-.267-7.066s5.042-2.145 7.066-.267c7.604 7.05 18.224 7.05 25.827 0 2.025-1.876 5.188-1.759 7.066.267 1.877 2.025 1.758 5.188-.267 7.066-5.712 5.295-12.713 7.943-19.713 7.943z" fill="#383842"/><g><path d="m193.744 99.874-17.669-7.131c-7.701-3.108-11.423-11.87-8.315-19.571s11.873-11.424 19.571-8.315l17.669 7.131c7.701 3.108 11.423 11.87 8.315 19.571-3.116 7.72-11.889 11.415-19.571 8.315z" fill="url(#SVGID_10_)"/></g><g><path d="m321.477 99.874 17.669-7.131c7.701-3.108 11.423-11.87 8.315-19.571s-11.873-11.424-19.571-8.315l-17.669 7.131c-7.701 3.108-11.423 11.87-8.315 19.571 3.116 7.72 11.89 11.415 19.571 8.315z" fill="url(#SVGID_11_)"/></g><g fill="#fd8943"><path d="m257.611 444.262c-4.152 0-7.518 3.366-7.518 7.518v50.22h15.036v-50.22c0-4.152-3.366-7.518-7.518-7.518z"/><path d="m188.591 444.262c-4.152 0-7.518 3.366-7.518 7.518v47.385c4.911 1.214 9.936 2.052 15.036 2.485v-49.87c0-4.152-3.366-7.518-7.518-7.518z"/><path d="m326.63 444.262c-4.152 0-7.518 3.366-7.518 7.518v49.869c5.1-.433 10.125-1.272 15.036-2.487v-47.382c0-4.152-3.366-7.518-7.518-7.518z"/></g><path d="m207.544 327.559c-18.508-1.819-35.899-7.301-51.468-15.692-.046.025-11.055 5.958-22.919 21.486 21.772 13.508 46.092 21.712 71.651 24.164 8.79.843 16.366-6.158 16.366-14.988 0-7.76-5.908-14.211-13.63-14.97z" fill="#fddcb4"/><path d="m284.297 167.685c-3.308 11.62-14.003 20.134-26.686 20.134s-23.378-8.514-26.686-20.134c7.744-4.829 16.89-7.615 26.686-7.615s18.942 2.786 26.686 7.615z" fill="#383842"/></g></svg>