<svg id="Capa_1" enable-background="new 0 0 512 512" height="512" viewBox="0 0 512 512" width="512" xmlns="http://www.w3.org/2000/svg"><g><path d="m491.187 484.943h-470.374c-11.495 0-20.813-9.318-20.813-20.813v-320.52c0-11.495 9.318-20.813 20.813-20.813h470.374c11.495 0 20.813 9.318 20.813 20.813v320.52c0 11.495-9.318 20.813-20.813 20.813z" fill="#dd636e"/><path d="m491.187 122.797h-34.341c11.495 0 20.813 9.318 20.813 20.813v320.52c0 11.495-9.318 20.813-20.813 20.813h34.341c11.495 0 20.813-9.318 20.813-20.813v-320.52c0-11.495-9.318-20.813-20.813-20.813z" fill="#da4a54"/><path d="m141.529 47.87v43.707h31.22v-28.15c0-2.845 2.306-5.151 5.151-5.151h156.202c2.845 0 5.151 2.306 5.151 5.151v28.15h31.22v-43.707c0-11.495-9.318-20.813-20.813-20.813h-187.318c-11.495 0-20.813 9.319-20.813 20.813z" fill="#bebebe"/><path d="m349.659 27.057h-20.813c11.495 0 20.813 9.318 20.813 20.813v43.707h20.813v-43.707c0-11.494-9.319-20.813-20.813-20.813z" fill="#9b9b9b"/><g fill="#818181"><path d="m386.082 122.797h-62.439v-20.918c0-5.69 4.612-10.302 10.302-10.302h41.835c5.69 0 10.302 4.612 10.302 10.302z"/><path d="m453.829 164.423h-31.429c-5.69 0-10.302-4.612-10.302-10.302v-31.324h52.033v31.324c-.001 5.69-4.613 10.302-10.302 10.302z"/><path d="m58.172 164.423h31.429c5.69 0 10.302-4.612 10.302-10.302v-31.324h-52.033v31.324c0 5.69 4.612 10.302 10.302 10.302z"/><path d="m125.919 122.797h62.439v-20.918c0-5.69-4.612-10.302-10.302-10.302h-41.835c-5.69 0-10.302 4.612-10.302 10.302z"/></g><circle cx="256" cy="303.87" fill="#efecef" r="135.285"/><path d="m340.971 198.606c18.772 23.225 30.021 52.782 30.021 84.971 0 74.716-60.569 135.284-135.285 135.284-32.189 0-61.746-11.249-84.971-30.021 24.8 30.685 62.737 50.313 105.264 50.313 74.716 0 135.285-60.569 135.285-135.284 0-42.526-19.629-80.462-50.314-105.263z" fill="#e2dfe2"/><path d="m339.357 272.651h-41.835c-5.69 0-10.302-4.612-10.302-10.302v-41.835c0-5.69-4.612-10.302-10.302-10.302h-41.835c-5.69 0-10.302 4.612-10.302 10.302v41.835c0 5.69-4.612 10.302-10.302 10.302h-41.835c-5.69 0-10.302 4.612-10.302 10.302v41.835c0 5.69 4.612 10.302 10.302 10.302h41.835c5.69 0 10.302 4.612 10.302 10.302v41.835c0 5.69 4.612 10.302 10.302 10.302h41.835c5.69 0 10.302-4.612 10.302-10.302v-41.835c0-5.69 4.612-10.302 10.302-10.302h41.835c5.69 0 10.302-4.612 10.302-10.302v-41.835c0-5.69-4.613-10.302-10.302-10.302z" fill="#dd636e"/></g></svg>