<svg id="Capa_1" enable-background="new 0 0 512 512" height="512" viewBox="0 0 512 512" width="512" xmlns="http://www.w3.org/2000/svg"><g><path d="m288.753 0h-65.505c-20.257 0-36.678 16.421-36.678 36.678v117.973h138.862v-117.973c-.001-20.257-16.422-36.678-36.679-36.678z" fill="#f1d333"/><path d="m266.759.004c-20.253 0-36.674 16.421-36.674 36.675v117.976h-43.515v-117.977c0-20.254 16.421-36.675 36.674-36.675h43.515z" fill="#e7a52e"/><path d="m470.453 310.156c0 59.926-32.358 113.258-82.682 147.46-36.355 24.714-82.095 39.436-131.77 39.436s-95.415-14.721-131.77-39.436c-50.324-34.202-82.682-87.534-82.682-147.46 0-103.224 96.013-186.895 214.453-186.895s214.451 83.672 214.451 186.895z" fill="#b97ab7"/><path d="m256 497.053c-118.44 0-214.453-83.672-214.453-186.896s96.013-186.895 214.453-186.895c-48.058 0-87.019 83.672-87.019 186.895-.001 103.225 38.961 186.896 87.019 186.896z" fill="#845caf"/><path d="m387.771 457.617c-36.355 24.714-82.095 39.436-131.77 39.436s-95.415-14.721-131.77-39.436z" fill="#845caf"/><path d="m374.864 464.777h-235.709c-13.04 0-23.611 10.571-23.611 23.611 0 13.04 10.571 23.612 23.611 23.612h235.709c13.04 0 23.611-10.571 23.611-23.612 0-13.04-10.571-23.611-23.611-23.611z" fill="#b97ab7"/><path d="m201.945 505.088c4.265 4.275 10.178 6.912 16.689 6.912h-79.479c-6.521 0-12.414-2.637-16.689-6.912s-6.923-10.178-6.923-16.699c0-13.042 10.58-23.612 23.612-23.612h79.479c-13.032 0-23.612 10.569-23.612 23.612 0 6.52 2.648 12.423 6.923 16.699z" fill="#845caf"/><ellipse cx="285.792" cy="65.581" fill="#e7a52e" rx="16.444" ry="24.666"/><g fill="#b97ab7"><path d="m379.242 46.862c-2.03 0-4.056-.795-5.573-2.374-2.956-3.077-2.857-7.968.22-10.925l17.294-16.611c3.077-2.955 7.968-2.857 10.925.22 2.956 3.077 2.857 7.968-.22 10.925l-17.294 16.611c-1.499 1.439-3.427 2.154-5.352 2.154z"/><path d="m388.92 73.993c-4.253 0-7.708-3.439-7.726-7.695-.017-4.267 3.428-7.74 7.695-7.758l30.929-.126c4.259.026 7.74 3.428 7.758 7.695.017 4.267-3.428 7.74-7.695 7.758l-30.929.126c-.011 0-.022 0-.032 0z"/><path d="m398.787 116.103c-1.576 0-3.167-.481-4.54-1.479l-18.681-13.594c-3.45-2.511-4.212-7.343-1.701-10.794 2.511-3.45 7.342-4.211 10.794-1.701l18.681 13.594c3.45 2.511 4.212 7.344 1.701 10.794-1.512 2.077-3.866 3.18-6.254 3.18z"/></g><path d="m359.687 360.553c-1.401 13.753-12.64 24.426-26.445 25.28-51.499 3.184-102.987 3.184-154.486 0-.804-.051-1.607-.134-2.39-.247-12.692-1.865-22.736-12.084-24.055-25.033-3.42-33.595-3.42-67.189 0-100.783 1.319-12.96 11.353-23.158 24.044-25.023.793-.124 1.586-.206 2.4-.258 51.499-3.194 102.987-3.194 154.486 0 13.804.855 25.044 11.517 26.445 25.281 3.432 33.595 3.432 67.189.001 100.783z" fill="#f9f6f9"/><g fill="#dfeaef"><path d="m176.366 385.586c-12.692-1.865-22.736-12.084-24.055-25.033-3.42-33.595-3.42-67.189 0-100.783 1.319-12.96 11.353-23.158 24.044-25.023-4.749 23.065-7.376 48.573-7.376 75.409.001 26.847 2.638 52.365 7.387 75.43z"/><g><path d="m289.462 284.107h-66.916c-4.267 0-7.726-3.459-7.726-7.726s3.459-7.726 7.726-7.726h66.916c4.267 0 7.726 3.459 7.726 7.726 0 4.266-3.459 7.726-7.726 7.726z"/><path d="m289.462 351.662h-66.916c-4.267 0-7.726-3.459-7.726-7.726s3.459-7.726 7.726-7.726h66.916c4.267 0 7.726 3.459 7.726 7.726s-3.459 7.726-7.726 7.726z"/><path d="m322.92 317.884h-133.834c-4.267 0-7.726-3.459-7.726-7.726s3.459-7.726 7.726-7.726h133.834c4.267 0 7.726 3.459 7.726 7.726s-3.459 7.726-7.726 7.726z"/></g></g></g></svg>