<svg id="Layer_1" data-name="Layer 1" xmlns="http://www.w3.org/2000/svg" viewBox="0 0 490.04 490.01"><defs><style>.cls-1{fill:#b0b5ca;}.cls-2{fill:#bb97e8;}.cls-3{fill:#a0eaea;}.cls-4{fill:#fb6771;}.cls-5{fill:#ccd3df;}.cls-6{fill:#db525f;}.cls-7{fill:#bf4153;}.cls-8{fill:#6d7486;}.cls-9{fill:#e75163;}</style></defs><path class="cls-1" d="M489.76,435.49,220.41,166.14A109.68,109.68,0,0,0,85.8,16.65l44.46,44.46-11.48,57.25L59.61,128.82,16.72,85.64h0A109.68,109.68,0,0,0,166.14,220.41L435.5,489.76a38.37,38.37,0,1,0,54.26-54.27Z" transform="translate(-10.96 -10.98)"/><path class="cls-2" d="M494.08,36.72,461,93.27l-29.13,10.34L318.47,217l-1.78,1.78L293.2,195.31l1.78-1.78L408.39,80.12,418.73,51l56.55-33.07Z" transform="translate(-10.96 -10.98)"/><path class="cls-3" d="M255.11,214.34l28.53-28.53,42.5,42.51-28.53,28.52Z" transform="translate(-10.96 -10.98)"/><path class="cls-4" d="M226.22,232.37,165.4,265.65,29.9,401.15a40.88,40.88,0,0,0,0,57.81h0L53,482.1a40.88,40.88,0,0,0,57.81,0h0l135.5-135.5,33.28-60.82Z" transform="translate(-10.96 -10.98)"/><path class="cls-5" d="M63.11,211.16A109.58,109.58,0,0,1,35.05,104.1L16.72,85.64h0a109.74,109.74,0,0,0,54.65,133,110.41,110.41,0,0,1-8.25-7.43Z" transform="translate(-10.96 -10.98)"/><path class="cls-6" d="M49.9,472a40.88,40.88,0,0,1,0-57.81h0l135.5-135.5,56.3-30.8-15.48-15.48L165.4,265.65,29.9,401.15a40.88,40.88,0,0,0,0,57.81h0L53,482.1a40.65,40.65,0,0,0,17.3,10.3Z" transform="translate(-10.96 -10.98)"/><path class="cls-7" d="M93.72,450.11a6,6,0,0,1-4.24-10.24L185.34,344a6,6,0,0,1,8.49,8.49L98,448.35a6,6,0,0,1-4.24,1.76Z" transform="translate(-10.96 -10.98)"/><path class="cls-7" d="M67.89,424.27A6,6,0,0,1,63.65,414l95.85-95.86a6,6,0,0,1,8.49,8.49L72.13,422.52a6,6,0,0,1-4.24,1.75Z" transform="translate(-10.96 -10.98)"/><path class="cls-8" d="M427.11,432.94a6,6,0,0,1-4.24-1.76L291.11,299.43a6,6,0,0,1,8.49-8.49L431.36,422.7a6,6,0,0,1-4.25,10.24Z" transform="translate(-10.96 -10.98)"/><path class="cls-8" d="M217.23,223.06A6,6,0,0,1,213,221.3l-16.54-16.54a6,6,0,1,1,8.48-8.49l16.54,16.54a6,6,0,0,1-4.24,10.25Z" transform="translate(-10.96 -10.98)"/><path class="cls-8" d="M197.32,139.68l-.47,0a6,6,0,0,1-5.52-6.44,81,81,0,0,0-3.84-31.63,6,6,0,1,1,11.39-3.76,92.56,92.56,0,0,1,4.41,36.31,6,6,0,0,1-6,5.54Z" transform="translate(-10.96 -10.98)"/><path class="cls-8" d="M183.69,85.92a6,6,0,0,1-5-2.74,82.55,82.55,0,0,0-4.94-6.81A6,6,0,0,1,183,68.82a94.54,94.54,0,0,1,5.68,7.83,6,6,0,0,1-5,9.27Z" transform="translate(-10.96 -10.98)"/><path class="cls-9" d="M305.78,265l-58.73-58.73a16.61,16.61,0,0,0-23.49,23.49l58.73,58.73A16.61,16.61,0,0,0,305.78,265Z" transform="translate(-10.96 -10.98)"/></svg>