<svg id="flat" height="512" viewBox="0 0 512 512" width="512" xmlns="http://www.w3.org/2000/svg"><path d="m64 256h32v32h-32z" fill="#56679c"/><path d="m239.028 209.775h16v42.505h-16z" fill="#56679c" transform="matrix(.707 -.707 .707 .707 -91.009 242.342)"/><path d="m209.373 208h45.255v16h-45.255z" fill="#6d7eb3" transform="matrix(.707 -.707 .707 .707 -84.783 227.327)"/><path d="m152 240 24-32h16v64z" fill="#56679c"/><path d="m296 232h-32l-24 24 24 32v56h32z" fill="#6d7eb3"/><path d="m208 344h80v88h-80z" fill="#f7c04a"/><path d="m288 432v-176h112l40 32v144z" fill="#f7c04a"/><path d="m440 288h-64v16l16 16h48z" fill="#fcedc0"/><path d="m320 336v-113.37258a16 16 0 0 1 4.68629-11.31371l27.31371-27.31371 16 16-24 24v112z" fill="#cad8ed"/><path d="m288 320h56l24 24v88h-80z" fill="#eb8117"/><path d="m88 328v-88h72l48 40v48z" fill="#f7c04a"/><circle cx="128" cy="384" fill="#56679c" r="104"/><circle cx="424" cy="424" fill="#56679c" r="64"/><circle cx="128" cy="384" fill="#cad8ed" r="64"/><circle cx="424" cy="424" fill="#cad8ed" r="32"/><circle cx="128" cy="384" fill="#a6bce3" r="32"/><circle cx="424" cy="424" fill="#a6bce3" r="8"/><path d="m144 160h16v80h-16z" fill="#8796c4"/><path d="m304 256h-16v-60.68652l-39.085-39.085 11.31449-11.31348 41.42774 41.42822a8.00035 8.00035 0 0 1 2.34277 5.65678z" fill="#8796c4"/><path d="m288 160h-152v-32h104l48 16z" fill="#f7c04a"/><path d="m240 296h24v24h-24z" fill="#56679c"/><path d="m24 264v-183.43147a8.56853 8.56853 0 0 1 8.56853-8.56853 8.56854 8.56854 0 0 1 8.48247 7.35676l22.949 160.64324v48h-16a24 24 0 0 1 -24-24z" fill="#8796c4"/><g fill="#90d4b1"><path d="m80 80h-16a24.02718 24.02718 0 0 0 -24-24v-16a40.04552 40.04552 0 0 1 40 40z"/><path d="m104 80h-16a48.054 48.054 0 0 0 -48-48v-16a64.07239 64.07239 0 0 1 64 64z"/></g></svg>