<svg id="Layer_1" height="512" viewBox="0 0 512 512" width="512" xmlns="http://www.w3.org/2000/svg" data-name="Layer 1"><rect fill="#6d7486" height="307.48" rx="11.23" width="490" x="11" y="52.25"/><path d="m317.78 362.6v44.93h-123.56v-44.93-2.87h123.56z" fill="#4a5160"/><path d="m44.7 85.95v240.08h422.6v-240.08z" fill="#fb6771"/><circle cx="256.833" cy="210.833" fill="#eadf53" r="55.5"/><path d="m280.6 211.61-32.09 24.07v-48.14z" fill="#5fa8ed"/><path d="m384.51 429.75h-.8a30 30 0 0 0 60 0z" fill="#4689d3"/><path d="m433.71 289.75h-40a10 10 0 0 0 -10 10v130h60v-130a10 10 0 0 0 -10-10z" fill="#6994fe"/><path d="m44.7 85.95h30v240.08h-30z" fill="#d85561"/><path d="m407.71 429.75h-24a30 30 0 0 0 42 27.5 30 30 0 0 1 -18-27.5z" fill="#3e7fba"/><path d="m407.71 429.75v-130a10 10 0 0 1 10-10h-24a10 10 0 0 0 -10 10v130z" fill="#5987e2"/><path d="m348.321 413.53h-184.642a6 6 0 1 1 0-12h184.642a6 6 0 0 1 0 12z" fill="#6d7486"/><g fill="#50dd5a"><path d="m401.71 375.747a7 7 0 1 1 7-7 7.009 7.009 0 0 1 -7 7z"/><path d="m401.71 351.747a7 7 0 1 1 7-7 7.009 7.009 0 0 1 -7 7z"/><path d="m401.71 401.747a7 7 0 1 1 7-7 7.009 7.009 0 0 1 -7 7z"/><path d="m425.71 375.747a7 7 0 1 1 7-7 7.009 7.009 0 0 1 -7 7z"/><path d="m425.71 351.747a7 7 0 1 1 7-7 7.009 7.009 0 0 1 -7 7z"/><path d="m425.71 401.747a7 7 0 1 1 7-7 7.009 7.009 0 0 1 -7 7z"/></g><path d="m401.71 321.747a7 7 0 1 1 7-7 7.009 7.009 0 0 1 -7 7z" fill="#fb6771"/></svg>