<svg id="Capa_1" enable-background="new 0 0 502 502" height="512" viewBox="0 0 502 502" width="512" xmlns="http://www.w3.org/2000/svg" xmlns:xlink="http://www.w3.org/1999/xlink"><linearGradient id="SVGID_1_" gradientTransform="matrix(1 -.002 .002 1 -.59 .305)" gradientUnits="userSpaceOnUse" x1="215.128" x2="215.128" y1="112.542" y2="-3.304"><stop offset="0" stop-color="#5bd9bb"/><stop offset=".2532" stop-color="#60dabd"/><stop offset=".5725" stop-color="#70dec4"/><stop offset=".9261" stop-color="#8ae4cf"/><stop offset="1" stop-color="#90e6d2"/></linearGradient><linearGradient id="lg1"><stop offset="0" stop-color="#4e5660"/><stop offset="1" stop-color="#64768d"/></linearGradient><linearGradient id="SVGID_2_" gradientTransform="matrix(1 -.002 .002 1 -.59 .305)" gradientUnits="userSpaceOnUse" x1="215.129" x2="215.129" xlink:href="#lg1" y1="427.396" y2="505.485"/><linearGradient id="SVGID_3_" gradientTransform="matrix(1 -.002 .002 1 -.59 .305)" gradientUnits="userSpaceOnUse" x1="215.128" x2="215.128" y1="439.859" y2="62.758"><stop offset="0" stop-color="#d4dbdb"/><stop offset="1" stop-color="#f3f3f3"/></linearGradient><linearGradient id="SVGID_4_" gradientUnits="userSpaceOnUse" x1="90.052" x2="339.94" xlink:href="#lg1" y1="269.197" y2="269.197"/><linearGradient id="SVGID_5_" gradientUnits="userSpaceOnUse" x1="214.996" x2="214.996" y1="337.84" y2="175.1"><stop offset="0" stop-color="#74d2e8"/><stop offset="1" stop-color="#baeaf5"/></linearGradient><linearGradient id="SVGID_6_" gradientUnits="userSpaceOnUse" x1="137.867" x2="137.867" y1="81.174" y2="26.469"><stop offset="0" stop-color="#f4d952"/><stop offset="1" stop-color="#f9edaf"/></linearGradient><linearGradient id="SVGID_7_" gradientUnits="userSpaceOnUse" x1="355.196" x2="355.196" y1="345.653" y2="111.824"><stop offset="0" stop-color="#ec6f80"/><stop offset="1" stop-color="#eca0aa"/></linearGradient><linearGradient id="SVGID_8_" gradientUnits="userSpaceOnUse" x1="355.196" x2="355.196" y1="183.123" y2="135.511"><stop offset="0" stop-color="#dd5c6e"/><stop offset="1" stop-color="#ec8290"/></linearGradient><g><path d="m304.805 0-180.537.308c-23.621.04-43.908 16.796-48.411 39.984l-16.802 86.528 311.394-.531-17.097-86.47c-4.581-23.173-24.926-39.859-48.547-39.819z" fill="url(#SVGID_1_)"/><path d="m387.933 424.894-345.343.589.06 34.911c.039 23.017 18.73 41.645 41.748 41.605l261.989-.447c23.017-.039 41.645-18.73 41.605-41.748z" fill="url(#SVGID_2_)"/><path d="m377.963 437.962-325.358.555c-24.199.041-43.85-19.543-43.892-43.742l-.427-250.453c-.041-24.199 19.543-43.85 43.742-43.891l325.358-.555c24.199-.041 43.85 19.543 43.891 43.742l.427 250.453c.042 24.199-19.542 43.85-43.741 43.891z" fill="url(#SVGID_3_)"/><path d="m239.36 298.132v25.507c0 33.552 27.296 60.848 60.847 60.848h109.979c3.933 0 7.774-.389 11.501-1.105l-.145-85.25z" fill="#cad1d9"/><path d="m336.559 298.132.001.016c2.221-9.359 3.397-19.123 3.379-29.164-.118-69.004-56.152-124.848-125.157-124.731-69.004.117-124.848 56.152-124.73 125.157s56.152 124.848 125.157 124.731c21.596-.037 41.903-5.552 59.609-15.226 13.142-29.429 37.809-61.484 61.741-80.783z" fill="url(#SVGID_4_)"/><path d="m239.36 298.132v25.507c0 24.491 14.552 45.635 35.457 55.276 30.64-16.741 53.48-45.946 61.742-80.783z" fill="#424e5e"/><path d="m274.355 315.336c9.943-12.774 15.87-28.826 15.841-46.267-.071-41.532-33.796-75.142-75.328-75.071s-75.142 33.796-75.072 75.328c.071 41.532 33.796 75.142 75.328 75.071 9.284-.016 18.166-1.724 26.37-4.814 9.504-22.38 22.823-24.247 32.861-24.247z" fill="url(#SVGID_5_)"/><path d="m256.86 280.706c-9.665 0-17.5 7.835-17.5 17.5v25.432c0 5.517.751 10.859 2.134 15.944 13.085-4.929 24.424-13.405 32.866-24.247v-17.129c0-9.665-7.835-17.5-17.5-17.5z" fill="#17c5d9"/><circle cx="137.867" cy="50.258" fill="url(#SVGID_6_)" r="26.368"/><path d="m273.316 60.258h-61.424c-5.523 0-10-4.477-10-10s4.477-10 10-10h61.424c5.522 0 10 4.477 10 10s-4.477 10-10 10z" fill="#12c7aa"/><path d="m489.842 195.377-27.439-27.439c-16.885-16.885-39.786-26.371-63.664-26.371h-1.207l-42.336 12.882-42.336-12.882h-1.206c-23.879 0-46.78 9.486-63.664 26.371l-27.439 27.439c-5.163 5.163-5.163 13.533 0 18.695l23.729 23.729c5.163 5.163 13.533 5.163 18.695 0l11.386-11.386v97.224c0 14.275 11.572 25.847 25.847 25.847h109.977c14.275 0 25.847-11.572 25.847-25.847v-97.224l11.386 11.386c5.163 5.163 13.533 5.163 18.695 0l23.729-23.729c5.163-5.162 5.163-13.532 0-18.695z" fill="url(#SVGID_7_)"/><path d="m312.86 141.568c0 23.382 18.954 42.336 42.336 42.336s42.336-18.954 42.336-42.336z" fill="url(#SVGID_8_)"/><g fill="#fff"><path d="m86.739 138.117h-42.282c-5.522 0-10-4.477-10-10s4.478-10 10-10h42.282c5.522 0 10 4.477 10 10s-4.477 10-10 10z"/><path d="m134.98 138.117h-6.613c-5.522 0-10-4.477-10-10s4.478-10 10-10h6.613c5.522 0 10 4.477 10 10s-4.477 10-10 10z"/></g></g></svg>