<svg xmlns="http://www.w3.org/2000/svg" width="48" height="49.455" viewBox="0 0 48 49.455">
  <g id="pay-per-click" transform="translate(-10.539)">
    <ellipse id="Ellipse_50" data-name="Ellipse 50" cx="24" cy="23.5" rx="24" ry="23.5" transform="translate(10.539 2.455)" fill="#51935e"/>
    <circle id="Ellipse_51" data-name="Ellipse 51" cx="3.333" cy="3.333" r="3.333" transform="translate(14.243 21.514)" fill="#ffd00d"/>
    <path id="Path_107" data-name="Path 107" d="M47.8,226.072a3.334,3.334,0,0,1,2.374-3.192,3.333,3.333,0,1,0,0,6.384A3.334,3.334,0,0,1,47.8,226.072Z" transform="translate(-31.637 -201.224)" fill="#ffaf10"/>
    <path id="Path_108" data-name="Path 108" d="M126.373,120.883A8.912,8.912,0,0,1,117.708,114H97.239a.969.969,0,0,0-.966.966v11.3a.969.969,0,0,0,.966.966h28.924a.969.969,0,0,0,.966-.966v-5.42C126.88,120.871,126.628,120.883,126.373,120.883Z" transform="translate(-77.162 -102.993)" fill="#91e0e8"/>
    <path id="Path_109" data-name="Path 109" d="M98.19,126.27v-11.3a.969.969,0,0,1,.966-.966H97.239a.969.969,0,0,0-.966.966v11.3a.969.969,0,0,0,.966.966h1.917A.969.969,0,0,1,98.19,126.27Z" transform="translate(-77.162 -102.993)" fill="#5dc1d8"/>
    <path id="Path_110" data-name="Path 110" d="M235.5,458.876v5.048c.653.054,1.313.083,1.98.083a23.583,23.583,0,0,0,9.418-1.95v-3.181Z" transform="translate(-202.94 -414.553)" fill="#37c47a"/>
    <path id="Path_111" data-name="Path 111" d="M237.416,458.883H235.5v5.048q.948.079,1.917.082Z" transform="translate(-202.94 -414.559)" fill="#02af8e"/>
    <path id="Path_112" data-name="Path 112" d="M189.76,222.215V210.086a1.453,1.453,0,0,0-1.449-1.449h-.579a1.452,1.452,0,0,0-1.3.823,1.452,1.452,0,0,0-1.3-.823h-.579a1.452,1.452,0,0,0-1.3.823,1.452,1.452,0,0,0-1.3-.823h-.579a1.447,1.447,0,0,0-1.159.585v-5.64a1.453,1.453,0,0,0-1.449-1.449h-.579a1.453,1.453,0,0,0-1.449,1.449v11.877l-1.612-1.612a1.453,1.453,0,0,0-2.049,0l-.6.6a1.453,1.453,0,0,0,0,2.049l5.716,5.716Z" transform="translate(-145.605 -182.609)" fill="#ffe2b8"/>
    <path id="Path_113" data-name="Path 113" d="M180.09,327.831l-5.716-5.716a1.453,1.453,0,0,1,0-2.049l.6-.6c.021-.021.044-.04.066-.06a1.452,1.452,0,0,0-1.983.06l-.6.6a1.453,1.453,0,0,0,0,2.049l5.716,5.716Z" transform="translate(-145.606 -288.224)" fill="#ffc987"/>
    <g id="Group_254" data-name="Group 254" transform="translate(31.4 39.509)">
      <path id="Path_114" data-name="Path 114" d="M237.215,413.466a.484.484,0,0,1-.483.483h-12.75a.484.484,0,0,1-.483-.483v-3.944a.484.484,0,0,1,.483-.483h12.75a.484.484,0,0,1,.483.483Z" transform="translate(-223.499 -409.039)" fill="#0f9390"/>
      <path id="Path_115" data-name="Path 115" d="M225.416,413.466v-3.944a.484.484,0,0,1,.483-.483h-1.917a.484.484,0,0,0-.483.483v3.944a.484.484,0,0,0,.483.483H225.9A.484.484,0,0,1,225.416,413.466Z" transform="translate(-223.499 -409.039)" fill="#0f9390"/>
    </g>
    <g id="Group_255" data-name="Group 255" transform="translate(27.198 15.31)">
      <circle id="Ellipse_52" data-name="Ellipse 52" cx="1.063" cy="1.063" r="1.063" transform="translate(14.344 25.593)" fill="#fff"/>
      <path id="Path_116" data-name="Path 116" d="M230.723,161.4a.724.724,0,0,1-.724-.724v-1.449a.724.724,0,0,1,1.449,0v1.449A.724.724,0,0,1,230.723,161.4Z" transform="translate(-225.169 -158.5)" fill="#fff"/>
      <path id="Path_117" data-name="Path 117" d="M255.472,175.618a.724.724,0,0,1-.512-1.237l1.025-1.025a.724.724,0,0,1,1.025,1.025l-1.024,1.024A.722.722,0,0,1,255.472,175.618Z" transform="translate(-247.527 -171.73)" fill="#fff"/>
      <path id="Path_118" data-name="Path 118" d="M267.173,209.949h-1.449a.724.724,0,0,1,0-1.449h1.449a.724.724,0,0,1,0,1.449Z" transform="translate(-256.79 -203.67)" fill="#fff"/>
      <path id="Path_119" data-name="Path 119" d="M182.172,209.949h-1.449a.724.724,0,1,1,0-1.449h1.449a.724.724,0,0,1,0,1.449Z" transform="translate(-179.999 -203.67)" fill="#fff"/>
      <path id="Path_120" data-name="Path 120" d="M196.392,175.618a.722.722,0,0,1-.512-.212l-1.024-1.024a.724.724,0,1,1,1.025-1.025l1.024,1.024a.725.725,0,0,1-.512,1.237Z" transform="translate(-193.229 -171.73)" fill="#fff"/>
    </g>
    <circle id="Ellipse_53" data-name="Ellipse 53" cx="8.993" cy="8.993" r="8.993" transform="translate(40.219 0)" fill="#ef9614"/>
    <circle id="Ellipse_54" data-name="Ellipse 54" cx="6.391" cy="6.391" r="6.391" transform="translate(42.82 2.601)" fill="#ffd00d"/>
    <path id="Path_121" data-name="Path 121" d="M343.643,33.326a6.392,6.392,0,0,1,5.433-6.32,6.391,6.391,0,1,0,0,12.639A6.392,6.392,0,0,1,343.643,33.326Z" transform="translate(-298.907 -24.333)" fill="#ffaf10"/>
    <path id="Path_122" data-name="Path 122" d="M386.115,50.4h-2.27v-1H386.6a.724.724,0,0,0,0-1.449h-1.014v-.628a.724.724,0,1,0-1.449,0v.628H383.6a1.209,1.209,0,0,0-1.207,1.207v1.481a1.209,1.209,0,0,0,1.207,1.207h2.27v1H383.12a.724.724,0,0,0,0,1.449h1.014v.563a.724.724,0,1,0,1.449,0V54.3h.531a1.209,1.209,0,0,0,1.207-1.207V51.611A1.209,1.209,0,0,0,386.115,50.4Z" transform="translate(-335.648 -42.102)" fill="#db722c"/>
    <circle id="Ellipse_55" data-name="Ellipse 55" cx="7.834" cy="7.834" r="7.834" transform="translate(10.874 32.932)" fill="#ef9614"/>
    <circle id="Ellipse_56" data-name="Ellipse 56" cx="5.278" cy="5.278" r="5.278" transform="translate(13.43 35.487)" fill="#ffd00d"/>
    <path id="Path_123" data-name="Path 123" d="M39.381,372.675a5.278,5.278,0,0,1,4.319-5.189,5.278,5.278,0,1,0,0,10.379A5.278,5.278,0,0,1,39.381,372.675Z" transform="translate(-24.034 -331.91)" fill="#ffaf10"/>
    <path id="Path_124" data-name="Path 124" d="M72.258,383.874H70.374v-.683h2.3a.724.724,0,0,0,0-1.449h-.79v-.454a.724.724,0,0,0-1.449,0v.454H70.07a1.146,1.146,0,0,0-1.145,1.145v1.29a1.146,1.146,0,0,0,1.145,1.145h1.884v.683h-2.3a.724.724,0,0,0,0,1.449h.79v.4a.724.724,0,0,0,1.449,0v-.4h.369a1.146,1.146,0,0,0,1.145-1.145v-1.29A1.146,1.146,0,0,0,72.258,383.874Z" transform="translate(-52.456 -343.805)" fill="#db722c"/>
    <circle id="Ellipse_57" data-name="Ellipse 57" cx="3.333" cy="3.333" r="3.333" transform="translate(47.471 28.18)" fill="#ffd00d"/>
    <path id="Path_125" data-name="Path 125" d="M391.8,295.077a3.334,3.334,0,0,1,2.374-3.192,3.333,3.333,0,1,0,0,6.384A3.334,3.334,0,0,1,391.8,295.077Z" transform="translate(-342.414 -263.564)" fill="#ffaf10"/>
  </g>
</svg>
