<svg xmlns="http://www.w3.org/2000/svg" width="48" height="50.161" viewBox="0 0 48 50.161">
  <g id="promotion" transform="translate(-11.046 0)">
    <circle id="Ellipse_48" data-name="Ellipse 48" cx="24" cy="24" r="24" transform="translate(11.046 2.161)" fill="#1a2b63"/>
    <path id="Path_78" data-name="Path 78" d="M186.3,336.253a.2.2,0,0,0-.269-.072.866.866,0,0,1-.432.115.876.876,0,0,1-.758-.435l-.442-.766a.873.873,0,0,1,.319-1.191.2.2,0,0,0-.1-.368.2.2,0,0,0-.1.027.867.867,0,0,1-.433.116.876.876,0,0,1-.758-.435l-.442-.766a.873.873,0,0,1,.319-1.191.2.2,0,1,0-.2-.341l-.418.242a.864.864,0,0,1-.431.115.885.885,0,0,1-.131-.01l-.029,0a.2.2,0,0,0-.17.3l.285.494a.861.861,0,0,1-.315,1.175l-1.172.677a.855.855,0,0,1-.427.114.865.865,0,0,1-.748-.429l-.386-.668-.167.1,4.364,7.558,2.865-1.654a.86.86,0,0,1-.2-.23l-.442-.766a.873.873,0,0,1,.319-1.191l.417-.241A.2.2,0,0,0,186.3,336.253Z" transform="translate(-151.446 -298.332)" fill="#ffe2b8"/>
    <path id="Path_79" data-name="Path 79" d="M334.256,74.349,336.593,73a.494.494,0,0,0,.18-.673l-4.043-7a.494.494,0,0,0-.673-.18l-2.337,1.349Z" transform="translate(-287.414 -58.669)" fill="#fff"/>
    <path id="Path_80" data-name="Path 80" d="M167.894,254.492a.865.865,0,0,1,.748.429l.428.742a.2.2,0,0,0,.171.1h.015a.2.2,0,0,0,.169-.124.859.859,0,0,1,.372-.434l3.487-2.013.021-.01-2.321-4.021-4.818,2.781,1.493,2.586A.852.852,0,0,1,167.894,254.492Z" transform="translate(-139.967 -224.622)" fill="#445ea0"/>
    <g id="Group_251" data-name="Group 251" transform="translate(26.199 26.544)">
      <path id="Path_81" data-name="Path 81" d="M167.894,272.859a.865.865,0,0,1,.748.429l.428.742a.2.2,0,0,0,.171.1h.015a.2.2,0,0,0,.169-.124.859.859,0,0,1,.372-.434l.032-.019-2.321-4.019-1.343.775,1.493,2.586A.851.851,0,0,1,167.894,272.859Z" transform="translate(-166.166 -269.532)" fill="#293d7c"/>
      <path id="Path_82" data-name="Path 82" d="M212.062,340.237a.873.873,0,0,1,.319-1.191l.032-.019-.259-.449a.876.876,0,0,1-.742-.434l-.442-.766a.871.871,0,0,1-.005-.86l-.322-.557a.876.876,0,0,1-.742-.434l-.442-.766a.871.871,0,0,1-.005-.86l-.259-.449-.032.019a.864.864,0,0,1-.431.115.881.881,0,0,1-.131-.01l-.029,0a.2.2,0,0,0-.17.3l.285.494a.861.861,0,0,1-.149,1.05l2.774,4.8a.494.494,0,0,0,.673.18l.129-.074Z" transform="translate(-204.218 -327.158)" fill="#293d7c"/>
    </g>
    <path id="Path_83" data-name="Path 83" d="M91.105,224.867l-2.611,1.508a.494.494,0,0,0-.18.673l2.1,3.641a.494.494,0,0,0,.673.18l2.611-1.508Z" transform="translate(-69.723 -202.722)" fill="#fff"/>
    <path id="Path_84" data-name="Path 84" d="M89.785,226.786l1.821-1.052-.5-.868-2.611,1.508a.494.494,0,0,0-.18.673l2.1,3.641a.494.494,0,0,0,.673.18l.363-.21-1.847-3.2A.494.494,0,0,1,89.785,226.786Z" transform="translate(-69.723 -202.722)" fill="#d9eafc"/>
    <path id="Path_85" data-name="Path 85" d="M195.432,38.748l-8.514,13.027,3.756,6.506,15.539-.86Z" transform="translate(-158.675 -34.932)" fill="#fff"/>
    <path id="Path_86" data-name="Path 86" d="M195.432,38.748l-8.514,13.027,1.146,1.984,8.514-13.027Z" transform="translate(-158.675 -34.932)" fill="#d9eafc"/>
    <path id="Path_87" data-name="Path 87" d="M119.2,171.322a.494.494,0,0,1-.18.673l-7.128,4.115a.494.494,0,0,1-.673-.18l-4.043-7a.494.494,0,0,1,.18-.673l7.128-4.115a.494.494,0,0,1,.673.18Z" transform="translate(-86.728 -147.915)" fill="#fe3745"/>
    <path id="Path_88" data-name="Path 88" d="M109.081,169.452a.494.494,0,0,1,.18-.673l6.354-3.668-.457-.792a.494.494,0,0,0-.673-.18l-7.128,4.115a.494.494,0,0,0-.18.673l4.043,7a.494.494,0,0,0,.673.18l.774-.447Z" transform="translate(-86.728 -147.915)" fill="#b7092b"/>
    <path id="Path_89" data-name="Path 89" d="M274.4,23.087a.494.494,0,0,1-.18.673l-1.931,1.115a.494.494,0,0,1-.673-.18L258.427,1.853a.494.494,0,0,1,.18-.673L260.538.065a.494.494,0,0,1,.673.18Z" transform="translate(-223.083 0)" fill="#fe3745"/>
    <path id="Path_90" data-name="Path 90" d="M260.1,2.411a.494.494,0,0,1,.18-.673l1.343-.775L261.21.246a.494.494,0,0,0-.673-.18L258.606,1.18a.494.494,0,0,0-.18.673l13.187,22.841a.494.494,0,0,0,.673.18l.588-.339Z" transform="translate(-223.082 0)" fill="#b7092b"/>
    <path id="Path_91" data-name="Path 91" d="M72.669,378.121l-7.3,4.212A24.246,24.246,0,0,0,72,388.026l4.793-2.767Z" transform="translate(-49.101 -340.883)" fill="#d9eafc"/>
    <path id="Path_92" data-name="Path 92" d="M72.669,378.121l-7.3,4.212q.519.642,1.08,1.247l7.025-4.056Z" transform="translate(-49.101 -340.883)" fill="#aec1ed"/>
    <path id="Path_93" data-name="Path 93" d="M164.7,307.413a1.06,1.06,0,0,1-1.444-.387l-1.992-3.45a1.06,1.06,0,0,1,.387-1.444l1.172-.677a1.06,1.06,0,0,1,1.444.387l1.992,3.45a1.06,1.06,0,0,1-.387,1.444Z" transform="translate(-135.418 -271.64)" fill="#ffe2b8"/>
    <path id="Path_94" data-name="Path 94" d="M185.77,305.3l-1.992-3.45a1.06,1.06,0,0,0-.951-.527l1.991,3.448a1.06,1.06,0,0,1-.387,1.444l-1.172.676a1.048,1.048,0,0,1-.494.14v0a1.06,1.06,0,0,0,1.444.387l1.172-.677A1.061,1.061,0,0,0,185.77,305.3Z" transform="translate(-154.932 -271.644)" fill="#ffc987"/>
    <path id="Path_95" data-name="Path 95" d="M384.565,67.278a.739.739,0,0,1-.37-1.378,1.846,1.846,0,0,0-1.846-3.2.739.739,0,1,1-.739-1.279,3.324,3.324,0,0,1,3.324,5.757A.737.737,0,0,1,384.565,67.278Z" transform="translate(-333.861 -54.973)" fill="#ffaf10"/>
    <path id="Path_96" data-name="Path 96" d="M372.521,42.763a.739.739,0,0,1-.37-1.378,4.8,4.8,0,1,0-4.8-8.315.739.739,0,0,1-.739-1.279,6.278,6.278,0,0,1,6.278,10.874A.737.737,0,0,1,372.521,42.763Z" transform="translate(-320.339 -27.899)" fill="#ffd00d"/>
    <path id="Path_97" data-name="Path 97" d="M202.541,288.212a1.072,1.072,0,0,1-.391,1.46l-3.487,2.013a1.072,1.072,0,0,1-1.46-.391l-.442-.766a1.072,1.072,0,0,1,.391-1.46l3.487-2.013a1.072,1.072,0,0,1,1.46.391Z" transform="translate(-167.421 -258.657)" fill="#ffe2b8"/>
    <path id="Path_98" data-name="Path 98" d="M198.272,291.618l-.442-.766a1.072,1.072,0,0,1,.391-1.46l3.487-2.013a1.053,1.053,0,0,1,.263-.107,1.073,1.073,0,0,0-1.331-.214l-3.487,2.013a1.072,1.072,0,0,0-.391,1.46l.442.766a1.072,1.072,0,0,0,1.2.5A1.077,1.077,0,0,1,198.272,291.618Z" transform="translate(-167.421 -258.66)" fill="#ffc987"/>
    <path id="Path_99" data-name="Path 99" d="M222.131,312.331a1.072,1.072,0,0,1-.391,1.46l-3.487,2.013a1.072,1.072,0,0,1-1.46-.391l-.442-.766a1.072,1.072,0,0,1,.391-1.46l3.487-2.013a1.072,1.072,0,0,1,1.46.391Z" transform="translate(-185.081 -280.401)" fill="#ffe2b8"/>
    <path id="Path_100" data-name="Path 100" d="M217.862,315.733l-.442-.766a1.072,1.072,0,0,1,.391-1.46l3.487-2.013a1.053,1.053,0,0,1,.263-.107,1.073,1.073,0,0,0-1.331-.214l-3.487,2.013a1.072,1.072,0,0,0-.391,1.46l.442.766a1.072,1.072,0,0,0,1.2.5A1.067,1.067,0,0,1,217.862,315.733Z" transform="translate(-185.082 -280.401)" fill="#ffc987"/>
    <g id="Group_252" data-name="Group 252" transform="translate(32.638 33.247)">
      <path id="Path_101" data-name="Path 101" d="M237.472,338.9a1.072,1.072,0,0,1-.391,1.46l-3.487,2.013a1.072,1.072,0,0,1-1.46-.391l-.442-.766a1.072,1.072,0,0,1,.391-1.46l3.487-2.013a1.072,1.072,0,0,1,1.46.391Z" transform="translate(-231.55 -337.602)" fill="#ffe2b8"/>
      <path id="Path_102" data-name="Path 102" d="M248.56,367.923a1.072,1.072,0,0,1-.391,1.46l-3.487,2.013a1.072,1.072,0,0,1-1.46-.391l-.442-.766a1.072,1.072,0,0,1,.391-1.46l3.487-2.013a1.072,1.072,0,0,1,1.46.391Z" transform="translate(-241.546 -363.766)" fill="#ffe2b8"/>
    </g>
    <g id="Group_253" data-name="Group 253" transform="translate(32.638 33.247)">
      <path id="Path_103" data-name="Path 103" d="M233.2,342.3l-.442-.766a1.072,1.072,0,0,1,.391-1.46l3.487-2.013a1.055,1.055,0,0,1,.263-.107,1.073,1.073,0,0,0-1.331-.214l-3.487,2.013a1.072,1.072,0,0,0-.391,1.46l.442.766a1.072,1.072,0,0,0,1.2.5A1.07,1.07,0,0,1,233.2,342.3Z" transform="translate(-231.549 -337.601)" fill="#ffc987"/>
      <path id="Path_104" data-name="Path 104" d="M244.29,371.328l-.442-.766a1.072,1.072,0,0,1,.391-1.46l3.487-2.013a1.058,1.058,0,0,1,.263-.107,1.073,1.073,0,0,0-1.331-.214l-3.487,2.013a1.072,1.072,0,0,0-.391,1.46l.442.766a1.072,1.072,0,0,0,1.2.5A1.072,1.072,0,0,1,244.29,371.328Z" transform="translate(-241.545 -363.768)" fill="#ffc987"/>
    </g>
    <path id="Path_105" data-name="Path 105" d="M141.253,353.383a.494.494,0,0,1-.18.673l-3.391,1.958a.494.494,0,0,1-.673-.18l-4.919-8.521a.494.494,0,0,1,.18-.673l3.391-1.958a.494.494,0,0,1,.673.18Z" transform="translate(-109.188 -310.679)" fill="#52bbef"/>
    <path id="Path_106" data-name="Path 106" d="M152.13,355.394l-2.861,1.652a.494.494,0,0,0-.18.673l4.449,7.705,2.861-1.652a.494.494,0,0,0,.18-.673Z" transform="translate(-124.513 -320.394)" fill="#69cdff"/>
    <circle id="Ellipse_49" data-name="Ellipse 49" cx="0.739" cy="0.739" r="0.739" transform="translate(28.257 41.448)" fill="#fff"/>
  </g>
</svg>
