<svg id="video-conference" xmlns="http://www.w3.org/2000/svg" width="48" height="48" viewBox="0 0 48 48">
  <path id="Path_126" data-name="Path 126" d="M48,24A23.977,23.977,0,0,1,24,48a24.238,24.238,0,0,1-3.437-.244q-.444-.063-.882-.143-.649-.119-1.286-.271-.492-.118-.976-.256l-.049-.014q-.561-.161-1.111-.349a23.7,23.7,0,0,1-2.711-1.113q-.875-.424-1.708-.915A24,24,0,1,1,48,24Zm0,0" fill="#844f89"/>
  <path id="Path_127" data-name="Path 127" d="M83.1,316.965V326.6a24.036,24.036,0,0,1-23.647-8.052v-1.58a8.922,8.922,0,0,1,6.608-8.616c.139-.037.279-.071.421-.1a8.892,8.892,0,0,1,1.161-.171c.241-.019.484-.029.73-.029H74.18a8.916,8.916,0,0,1,1.892.2l.1.023c.1.023.206.049.307.076l.008,0a8.926,8.926,0,0,1,6.609,8.617Zm0,0" transform="translate(-53.879 -279.167)" fill="#3d4159"/>
  <path id="Path_128" data-name="Path 128" d="M140.177,310.188l-.021.1-3.091,14.375q-1.049.093-2.124.093t-2.126-.093l-3.09-14.375-.022-.1Zm0,0" transform="translate(-117.543 -281.107)" fill="#dde8ed"/>
  <path id="Path_129" data-name="Path 129" d="M164.82,342.371l-2.394,3.84-2.394-3.84" transform="translate(-145.028 -310.274)" fill="#f74f4f"/>
  <path id="Path_130" data-name="Path 130" d="M166.413,381.281c-.4.037-.806,2.022-1.213,3.794q-.492-.118-.976-.256l-.049-.014q-.561-.161-1.111-.349c-.361-1.585-.718-3.143-1.073-3.175l2.211-8.611Zm0,0" transform="translate(-146.805 -337.734)" fill="#f74f4f"/>
  <path id="Path_131" data-name="Path 131" d="M134.94,299.435l-4.015,2.231-1.222-5.681,2.495-1.47" transform="translate(-117.543 -266.905)" fill="#bfd5de"/>
  <path id="Path_132" data-name="Path 132" d="M185.563,299.435l4.016,2.231,1.221-5.681-2.495-1.47" transform="translate(-168.166 -266.905)" fill="#bfd5de"/>
  <path id="Path_133" data-name="Path 133" d="M157.989,271.4v3.9a3.182,3.182,0,0,1-6.364,0v-3.9Zm0,0" transform="translate(-137.41 -245.958)" fill="#eab599"/>
  <path id="Path_134" data-name="Path 134" d="M176.437,310.418v.247a3.182,3.182,0,0,1-2.241,3.04,3.18,3.18,0,0,1-2.215-2.625q.319.019.641.019a11,11,0,0,0,3.815-.681Zm0,0" transform="translate(-155.857 -281.316)" fill="#f6caae"/>
  <path id="Path_135" data-name="Path 135" d="M35.246,174.526a2.958,2.958,0,1,1-2.485-2.921A2.959,2.959,0,0,1,35.246,174.526Zm0,0" transform="translate(-26.579 -155.482)" fill="#f6caae"/>
  <path id="Path_136" data-name="Path 136" d="M64.639,174.894a2.959,2.959,0,0,1-2.485,2.921,11.065,11.065,0,0,1,0-5.843A2.959,2.959,0,0,1,64.639,174.894Zm0,0" transform="translate(-55.972 -155.85)" fill="#eab599"/>
  <path id="Path_137" data-name="Path 137" d="M51.729,192.909a1.058,1.058,0,1,1-1.058-1.058A1.058,1.058,0,0,1,51.729,192.909Zm0,0" transform="translate(-44.962 -173.865)" fill="#eab599"/>
  <path id="Path_138" data-name="Path 138" d="M278.676,174.526a2.958,2.958,0,1,0,2.485-2.921A2.959,2.959,0,0,0,278.676,174.526Zm0,0" transform="translate(-252.55 -155.482)" fill="#f6caae"/>
  <path id="Path_139" data-name="Path 139" d="M278.676,174.894a2.959,2.959,0,0,0,2.485,2.921,11.054,11.054,0,0,0,0-5.843A2.959,2.959,0,0,0,278.676,174.894Zm0,0" transform="translate(-252.55 -155.85)" fill="#eab599"/>
  <path id="Path_140" data-name="Path 140" d="M90.149,35.2v4.193a11.01,11.01,0,0,1-9.244,10.868l-.054.009a10.861,10.861,0,0,1-1.714.133,11.01,11.01,0,0,1-11.009-11.01V35.2a11,11,0,0,1,11.009-11.01h0A11,11,0,0,1,90.149,35.2Zm0,0" transform="translate(-61.742 -21.923)" fill="#eab599"/>
  <path id="Path_141" data-name="Path 141" d="M301.073,192.909a1.058,1.058,0,1,1-1.058-1.058A1.058,1.058,0,0,1,301.073,192.909Zm0,0" transform="translate(-270.93 -173.865)" fill="#eab599"/>
  <path id="Path_142" data-name="Path 142" d="M123.291,36.49v4.193a11.01,11.01,0,0,1-9.244,10.868l-.054.009A11.011,11.011,0,0,1,104.7,40.683V36.49A11.012,11.012,0,0,1,114,25.613,11.012,11.012,0,0,1,123.291,36.49Zm0,0" transform="translate(-94.884 -23.212)" fill="#f6caae"/>
  <path id="Path_143" data-name="Path 143" d="M136.408,167.448a1.249,1.249,0,1,1-1.249-1.249A1.249,1.249,0,0,1,136.408,167.448Zm0,0" transform="translate(-121.356 -150.618)" fill="#3d4159"/>
  <path id="Path_144" data-name="Path 144" d="M213.08,167.448a1.249,1.249,0,1,1-1.249-1.249A1.249,1.249,0,0,1,213.08,167.448Zm0,0" transform="translate(-190.84 -150.618)" fill="#3d4159"/>
  <path id="Path_145" data-name="Path 145" d="M147.492,172a.535.535,0,1,1-.535-.535A.535.535,0,0,1,147.492,172Zm0,0" transform="translate(-132.695 -155.386)" fill="#fff"/>
  <path id="Path_146" data-name="Path 146" d="M224.817,172a.535.535,0,1,1-.535-.535A.536.536,0,0,1,224.817,172Zm0,0" transform="translate(-202.77 -155.386)" fill="#fff"/>
  <path id="Path_147" data-name="Path 147" d="M169.537,197.422h-2.5a.539.539,0,0,1,0-1.078h2.5a.539.539,0,0,1,0,1.078Zm0,0" transform="translate(-150.891 -177.937)" fill="#eab599"/>
  <path id="Path_148" data-name="Path 148" d="M157.166,228.615a5.563,5.563,0,0,1-2.684-.693.49.49,0,1,1,.472-.858,4.57,4.57,0,0,0,4.425,0,.49.49,0,0,1,.472.858A5.562,5.562,0,0,1,157.166,228.615Zm0,0" transform="translate(-139.768 -205.722)" fill="#eab599"/>
  <path id="Path_149" data-name="Path 149" d="M90.149,15.364v4.295H88.1V16.3L73.308,13.547l-3.13-.582v6.694H68.129V15.364A8.863,8.863,0,0,1,76.992,6.5h4.294c.116,0,.233,0,.35.008A8.862,8.862,0,0,1,90.149,15.364Zm0,0" transform="translate(-61.742 -5.891)" fill="#e8c934"/>
  <path id="Path_150" data-name="Path 150" d="M140.212,15.438v4.295h-2.049V16.37l-14.792-2.749a8.487,8.487,0,0,1,16.841,1.817Zm0,0" transform="translate(-111.805 -5.965)" fill="#ffe152"/>
  <path id="Path_151" data-name="Path 151" d="M103.142,304.965l5.21,18.482a23.765,23.765,0,0,1-3.821-1.462l-2.814-8.863h1.273l-2.6-6.771Zm0,0" transform="translate(-90.983 -276.374)" fill="#2a2f4f"/>
  <path id="Path_152" data-name="Path 152" d="M191.171,313.122h1.273l-3.5,11.009a23.7,23.7,0,0,1-3.144-.67l5.214-18.5,2.748,1.386Zm0,0" transform="translate(-168.385 -276.374)" fill="#2a2f4f"/>
  <path id="Path_153" data-name="Path 153" d="M236.485,276v5a24.075,24.075,0,0,1-13.812,13.434,23.742,23.742,0,0,1-3.2.951,24.064,24.064,0,0,1-5.221.57l-4.319-.49V276a2.393,2.393,0,0,1,2.392-2.392h21.772A2.392,2.392,0,0,1,236.485,276Zm0,0" transform="translate(-190.249 -247.955)" fill="#d8d5d0"/>
  <path id="Path_154" data-name="Path 154" d="M146.881,476.754v1.783a23.747,23.747,0,0,1-3.2.951,24.25,24.25,0,0,1-8.658.326q-1.1-.157-2.168-.415-.492-.118-.976-.256l-.049-.014q-.561-.162-1.111-.349a23.7,23.7,0,0,1-2.711-1.113q-.875-.424-1.708-.915Zm0,0" transform="translate(-114.457 -432.058)" fill="#d8d5d0"/>
  <path id="Path_155" data-name="Path 155" d="M249.743,276v5a24.075,24.075,0,0,1-13.812,13.434,23.742,23.742,0,0,1-3.2.951,24.064,24.064,0,0,1-5.221.57h-2.948V276a2.392,2.392,0,0,1,2.392-2.392h20.4A2.392,2.392,0,0,1,249.743,276Zm0,0" transform="translate(-203.506 -247.955)" fill="#f2f0ec"/>
  <path id="Path_156" data-name="Path 156" d="M337.652,368.445A2.449,2.449,0,1,1,335.2,366,2.449,2.449,0,0,1,337.652,368.445Zm0,0" transform="translate(-301.558 -331.684)" fill="#ffe152"/>
</svg>
