<svg id="facebook-logo" xmlns="http://www.w3.org/2000/svg" width="12.968" height="23.986" viewBox="0 0 12.968 23.986">
  <path id="Path_22" data-name="Path 22" d="M34.557,0l-3.11,0c-3.495,0-5.753,2.317-5.753,5.9V8.625H22.566a.489.489,0,0,0-.489.489v3.943a.489.489,0,0,0,.489.489h3.127V23.5a.489.489,0,0,0,.489.489h4.08a.489.489,0,0,0,.489-.489V13.547h3.657a.489.489,0,0,0,.489-.489V9.114a.489.489,0,0,0-.489-.489H30.752V6.318c0-1.109.264-1.672,1.709-1.672h2.1a.489.489,0,0,0,.489-.489V.494A.489.489,0,0,0,34.557,0Z" transform="translate(-22.077)" fill="#fff"/>
</svg>
