<svg id="instagram" xmlns="http://www.w3.org/2000/svg" width="23.051" height="23.052" viewBox="0 0 23.051 23.052">
  <path id="Path_20" data-name="Path 20" d="M11.761,5.838a5.915,5.915,0,1,0,5.915,5.915,5.914,5.914,0,0,0-5.915-5.915Zm0,9.754A3.839,3.839,0,1,1,15.6,11.753,3.838,3.838,0,0,1,11.761,15.592Z" transform="translate(-0.231 -0.231)" fill="#fff"/>
  <path id="Path_21" data-name="Path 21" d="M16.278.073c-2.121-.1-7.374-.094-9.5,0A6.888,6.888,0,0,0,1.945,1.937C-.272,4.154.012,7.141.012,11.522c0,4.484-.25,7.4,1.933,9.585C4.17,23.331,7.2,23.04,11.53,23.04c4.441,0,5.974,0,7.545-.605,2.135-.829,3.747-2.737,3.9-6.165.1-2.122.094-7.374,0-9.5-.19-4.046-2.362-6.5-6.7-6.7ZM19.635,19.64c-1.453,1.453-3.469,1.324-8.133,1.324-4.8,0-6.728.071-8.133-1.338-1.618-1.611-1.325-4.2-1.325-8.119,0-5.307-.545-9.128,4.781-9.4,1.224-.043,1.584-.058,4.664-.058l.043.029c5.118,0,9.134-.536,9.375,4.789.055,1.215.067,1.58.067,4.655C20.973,16.268,21.063,18.2,19.635,19.64Z" transform="translate(0 -0.001)" fill="#fff"/>
  <circle id="Ellipse_8" data-name="Ellipse 8" cx="1.382" cy="1.382" r="1.382" transform="translate(16.297 3.991)" fill="#fff"/>
</svg>
