<svg id="linkedin" xmlns="http://www.w3.org/2000/svg" width="17.637" height="17.637" viewBox="0 0 17.637 17.637">
  <path id="Path_17" data-name="Path 17" d="M19.883,19.645h0V13.176c0-3.164-.681-5.6-4.381-5.6a3.84,3.84,0,0,0-3.459,1.9H12V7.869H8.489V19.644h3.652V13.814c0-1.535.291-3.02,2.192-3.02,1.873,0,1.9,1.752,1.9,3.118v5.733Z" transform="translate(-2.251 -2.008)" fill="#fff"/>
  <path id="Path_18" data-name="Path 18" d="M.4,7.977H4.053V19.752H.4Z" transform="translate(-0.105 -2.115)" fill="#fff"/>
  <path id="Path_19" data-name="Path 19" d="M2.118,0A2.128,2.128,0,1,0,4.236,2.118,2.119,2.119,0,0,0,2.118,0Z" fill="#fff"/>
</svg>
