<svg id="twitter" xmlns="http://www.w3.org/2000/svg" width="21.619" height="17.565" viewBox="0 0 21.619 17.565">
  <g id="Group_4" data-name="Group 4" transform="translate(0 0)">
    <path id="Path_71" data-name="Path 71" d="M21.619,50.079a9.24,9.24,0,0,1-2.554.7,4.407,4.407,0,0,0,1.95-2.45A8.857,8.857,0,0,1,18.2,49.4a4.432,4.432,0,0,0-7.667,3.031,4.564,4.564,0,0,0,.1,1.011,12.545,12.545,0,0,1-9.135-4.636,4.433,4.433,0,0,0,1.362,5.924,4.377,4.377,0,0,1-2-.546v.049a4.452,4.452,0,0,0,3.551,4.355,4.424,4.424,0,0,1-1.162.146,3.919,3.919,0,0,1-.839-.076,4.474,4.474,0,0,0,4.141,3.087,8.9,8.9,0,0,1-5.5,1.89A8.3,8.3,0,0,1,0,63.576a12.477,12.477,0,0,0,6.8,1.989A12.528,12.528,0,0,0,19.414,52.953c0-.2-.007-.385-.016-.573A8.842,8.842,0,0,0,21.619,50.079Z" transform="translate(0 -48)" fill="#fff"/>
  </g>
</svg>
